<?xml version="1.0" standalone="no"?>
<!DOCTYPE svg PUBLIC "-//W3C//DTD SVG 1.1//EN" "http://www.w3.org/Graphics/SVG/1.1/DTD/svg11.dtd" >
<svg xmlns="http://www.w3.org/2000/svg">
<metadata>Generated by IcoMoon</metadata>
<defs>
<font id="saber-icon" horiz-adv-x="1024">
<font-face units-per-em="1024" ascent="896" descent="-128" />
<missing-glyph horiz-adv-x="1024" />
<glyph unicode="&#x20;" horiz-adv-x="0" d="" />
<glyph unicode="&#xe900;" glyph-name="text" d="M105.626 358.298l144.179 360.448c5.12 12.749 20.992 23.654 35.277 23.654h13.67c14.438 0 30.003-10.598 35.277-23.706l144.128-360.397c5.12-12.8-2.048-23.654-16.333-23.654h-43.008c-7.499 0.214-14.12 4.952-16.742 11.981l-20.378 61.184c-5.177 14.326-18.52 24.085-33.741 24.678h-112.128c-13.722 0-29.184-11.059-33.69-24.678l-20.429-61.184c-2.668-6.993-9.262-11.712-16.742-11.981h-43.008c-14.438 0-21.504 10.598-16.333 23.654zM236.288 521.779c-5.325-13.312 1.536-24.064 15.514-24.064h80.179c13.926 0 20.89 10.752 15.565 24.064l-36.813 91.904c-10.394 26.061-27.392 25.856-37.734 0l-36.71-91.955v0.051zM512 384c0 28.262 23.194 51.2 51.046 51.2h307.507c28.16 0 51.046-22.733 51.046-51.2 0-28.262-23.194-51.2-51.046-51.2h-307.507c-13.569-0.014-26.584 5.381-36.165 14.99s-14.936 22.641-14.882 36.21zM512 537.6c0 28.262 22.733 51.2 51.2 51.2h153.6c28.262 0 51.2-22.733 51.2-51.2 0-28.262-22.733-51.2-51.2-51.2h-153.6c-28.262 0-51.2 22.733-51.2 51.2zM102.4 230.4c0 28.262 22.989 51.2 51.558 51.2h664.883c28.467 0 51.558-22.733 51.558-51.2 0-28.262-22.989-51.2-51.558-51.2h-664.883c-13.637-0.082-26.744 5.275-36.421 14.884s-15.124 22.679-15.138 36.316zM102.4 76.8c0 28.257 22.892 51.172 51.149 51.2h563.251c28.277 0 51.2-22.923 51.2-51.2s-22.923-51.2-51.2-51.2h-563.2c-13.592-0.041-26.638 5.34-36.249 14.951s-14.992 22.657-14.951 36.249z" />
<glyph unicode="&#xe901;" glyph-name="formula" horiz-adv-x="1088" d="M1053.76 444.399h-91.481c-6.534 0-13.069-6.334-19.603-12.761l-78.412-82.624v-19.095l65.343-127.149c6.534-6.426 13.069-12.761 19.603-12.761h39.206c6.534 0 13.069-6.334 13.069-12.669v-101.811c0-6.334-6.534-12.669-13.069-12.669h-104.55c-6.534 0-19.603 6.334-19.603 12.669l-84.947 165.339c0 6.334-6.534 6.334-13.069 0l-150.29-165.339c0-6.334-13.069-12.669-19.603-12.669h-104.55c-6.534 0-13.069 6.334-13.069 12.669v101.811c0 6.334 6.534 12.669 13.069 12.669h91.481c6.534 0 13.069 6.334 19.603 6.334l117.618 133.575v19.095l-39.206 82.624c-6.534 6.426-13.069 12.761-19.603 12.761h-104.55c-6.534 0-13.069 6.334-13.069 12.669 0-6.334-6.534-12.669-13.069-12.669h-150.29l-98.015-381.538c-13.069-63.62-32.672-120.906-65.343-152.67-26.137-31.764-78.412-38.191-130.687-38.191h-65.343v127.241h65.343c0 0 52.275-12.761 71.878 63.62l98.015 381.538h-156.824c-6.534 0-13.069 6.334-13.069 12.669v101.811c0 6.334 6.534 12.669 13.069 12.669h189.496l32.672 127.241c19.603 63.62 52.275 101.719 84.947 127.149 124.153 101.811 267.908 57.286 333.252 44.525v-108.054c-65.343 12.669-163.359 44.525-235.237-6.426-19.603-12.669-52.275-44.525-58.809-63.529l-32.672-120.906h117.618c6.534 0 13.069-6.334 13.069-12.669 0 6.334 6.534 12.669 13.069 12.669h169.893c6.534 0 13.069-6.334 19.603-12.669l58.809-114.48c0-6.334 6.534-6.334 13.069 0l111.084 114.48c0 6.334 13.069 12.669 19.603 12.669h104.55c6.534 0 13.069-6.334 13.069-12.669v-101.811c0-6.334-6.534-12.669-13.069-12.669z" />
<glyph unicode="&#xe902;" glyph-name="filter" horiz-adv-x="1088" d="M573.626 512l224 256h-613.918l224-256h165.918zM640 393.477v-424.044c0-53.019-42.981-96-96-96-27.544 0-53.761 11.831-71.984 32.484l-152.016 172.284v339.656l-232.622 265.854c-20.417 23.333-31.67 53.284-31.67 84.289 0 70.692 57.308 128 128 128h613.918c31.005 0 60.955-11.254 84.289-31.67 53.201-46.551 58.593-127.417 12.041-180.618l-253.955-290.235zM810.667 384h192c35.346 0 64-28.654 64-64s-28.654-64-64-64h-192c-35.346 0-64 28.654-64 64s28.654 64 64 64zM810.667 128h192c35.346 0 64-28.654 64-64s-28.654-64-64-64h-192c-35.346 0-64 28.654-64 64s28.654 64 64 64zM448 126.599l64-72.533v329.935h-64v-257.401z" />
<glyph unicode="&#xe903;" glyph-name="round-quarter" d="M910.222 384c0 31.419 25.47 56.889 56.889 56.889s56.889-25.47 56.889-56.889c0-282.77-229.23-512-512-512s-512 229.23-512 512c0 282.77 229.23 512 512 512 31.419 0 56.889-25.47 56.889-56.889s-25.47-56.889-56.889-56.889c-219.932 0-398.222-178.29-398.222-398.222s178.29-398.222 398.222-398.222c219.932 0 398.222 178.29 398.222 398.222z" />
<glyph unicode="&#xe904;" glyph-name="man" d="M0 384c0-282.77 229.23-512 512-512s512 229.23 512 512c0 282.77-229.23 512-512 512s-512-229.23-512-512zM541.998 439.598c-66.649 66.649-174.679 66.68-241.29 0.069s-66.581-174.641 0.069-241.29c66.649-66.649 174.679-66.68 241.29-0.069s66.581 174.641-0.069 241.29zM714.087 551.347l-81.613-81.613c-0.837-0.837-1.699-1.631-2.585-2.384 71.35-99.977 62.198-239.703-27.481-329.382-99.917-99.917-261.961-99.871-361.936 0.103s-100.020 262.018-0.103 361.936c89.679 89.679 229.406 98.831 329.382 27.481 0.752 0.886 1.547 1.749 2.384 2.585l80.115 80.115-71.317 0.020c-23.557 0.007-42.66 19.109-42.667 42.667s19.085 42.649 42.642 42.642l170.618-0.049c13.096-0.004 24.815-5.909 32.643-15.2 9.291-7.827 15.197-19.546 15.2-32.643l0.049-170.618c0.007-23.557-19.085-42.649-42.642-42.642s-42.66 19.109-42.667 42.667l-0.021 74.314z" />
<glyph unicode="&#xe905;" glyph-name="woman" d="M0 384c0-282.77 229.23-512 512-512s512 229.23 512 512c0 282.77-229.23 512-512 512s-512-229.23-512-512zM512 315.733c94.257 0 170.667 76.41 170.667 170.667s-76.41 170.667-170.667 170.667c-94.257 0-170.667-76.41-170.667-170.667s76.41-170.667 170.667-170.667zM469.476 233.916c-121.146 20.254-213.476 125.587-213.476 252.484 0 141.385 114.615 256 256 256s256-114.615 256-256c0-126.898-92.33-232.231-213.476-252.484 0.095-1.159 0.143-2.332 0.143-3.516v-42.667h128c23.564 0 42.667-19.103 42.667-42.667s-19.103-42.667-42.667-42.667h-128v-85.333c0-23.564-19.103-42.667-42.667-42.667s-42.667 19.103-42.667 42.667v85.333h-128c-23.564 0-42.667 19.103-42.667 42.667s19.103 42.667 42.667 42.667h128v42.667c0 1.184 0.048 2.356 0.143 3.516v0z" />
<glyph unicode="&#xe906;" glyph-name="sicu" d="M163.84 814.081h696.32c90.486 0 163.84-73.354 163.84-163.84v-532.481c0-90.486-73.354-163.84-163.84-163.84h-696.32c-90.486 0-163.84 73.354-163.84 163.84v532.481c0 90.486 73.354 163.84 163.84 163.84zM163.84 732.161c-45.243 0-81.92-36.677-81.92-81.92v-532.481c0-45.243 36.677-81.92 81.92-81.92h696.32c45.243 0 81.92 36.677 81.92 81.92v532.481c0 45.243-36.677 81.92-81.92 81.92h-696.32zM323.572 170.93l-80.223 213.928-51.437-115.733c-6.891-15.504-25.045-22.486-40.548-15.595s-22.486 25.045-15.595 40.548l69.727 156.885c9.647 21.706 35.063 31.481 56.768 21.834 10.538-4.684 18.753-13.402 22.803-24.2l71.58-190.88 52.791 329.942c3.753 23.454 25.808 39.425 49.263 35.673 17.745-2.839 31.854-16.412 35.378-34.033l43.108-215.538h302.496c16.966 0 30.72-13.754 30.72-30.72s-13.754-30.72-30.72-30.72h-320.964c-18.549 0-34.519 13.092-38.156 31.281l-26.64 133.197-47.61-297.562c-2.443-15.266-12.891-28.047-27.366-33.475-22.241-8.34-47.031 2.928-55.371 25.169z" />
<glyph unicode="&#xe907;" glyph-name="crc" d="M316.259 204.818c49.436-40.382 74.802-109.532 23.704-164.695-12.010-12.965-32.257-13.74-45.222-1.73s-13.74 32.257-1.73 45.222c18.614 20.094 6.68 51.644-17.673 71.87-11.405-8.934-23.136-15.483-33.398-18.934-144.733-48.603-256.512 69.446-203.087 179.034-18.072 36.25-24.41 96.618-14.678 136.4-21.997 32.145-25.168 89.5-8.462 128.525-18.348 30.915-19.171 80.054-2.549 111.36-16.316 55.967 7.846 101.377 57.293 128.732 28.551 15.795 65.657 25.457 91.805 23.272 38.567 13.21 89.571-3.892 119.87-28.119 42.384 7.863 103.604-3.538 138.526-24.896 38.918 12.099 101.24 10.324 139.408-3.26 33.096 19.354 88.8 33.873 127.167 30.37 30.454 28.745 84.367 51.47 120.387 56.702 110.511 16.136 216.751-56.509 187.135-182.163 16.632-40.68 8.068-108.367-21.43-146.653 12.525-44.763 1.958-116.121-28.223-158.297 93.469-128.55-20.901-314.377-222.642-281.192-8.060 1.328-12.414 2.020-18.177 2.857-10.725 1.557-20.604 2.709-29.764 3.385-18.897 1.395-32.866 0.086-33.571-0.434-8.847-6.515-13.485-23.302-14.679-54.057-2.397-60.29-26.142-119.392-66.634-166.128-11.477-13.246-31.474-14.796-44.854-3.475-46.525 39.363-78.119 94.988-95.033 159.97-22.527 86.527-26.405 166.389 4.263 220.015 33.727 58.905 145.885 86.564 230.38 77.77 7.86 22.644 23.256 43.264 41.475 57.268-13.826 40.186-10.678 94.708 8.891 128.334-6.348 26.813-1.503 59.469 10.549 85.402-12.561-3.549-23.549-4.769-34.33-3.827-35.806-24.884-76.755-40.685-109.41-36.18-42.672-20.713-123.514-23.064-166.938-2.969-40.538-11.415-94.972 0.839-124.083 26.844-8.393-1.554-18.146-2.814-29.475-3.969-1.203-0.123-2.414-0.243-3.632-0.36 4.481-18.98 5.903-39.552 3.406-57.102 18.054-20.3 29.872-52.81 30.305-85.757 15.76 2.915 31.137 6.456 40.415 9.305 16.45 5.053 33.95-3.809 39.613-20.058 4.11-11.793 6.799-19.624 9.434-27.642 1.828-5.561 3.277-10.175 4.323-13.826 0.679-2.372 1.21-4.404 1.611-6.263 0.377-1.803 0.377-1.803 0.751-4.463 0.549-3.316 0.549-3.316-1.345-14.18-4.422-13.71-33.601-31.717-64.186-43.995 22.549-47.173 23.092-90.63 4.493-128.016zM244.189 384.592c-23.579-1.258-40.353 22.581-31.206 44.351 6.296 14.983 5.958 32.528-0.017 49.195-4.114 11.475-10.594 19.942-8.725 19.347-26 8.274-30.383 43.205-7.232 57.645-8.102-5.054-8.738-6.881-8.777-7.32 0.507 5.811 0.148 14.129-1.081 22.911-2.168 15.493-7.272 29.325-6.050 28.491-25.531 17.409-14.002 57.309 16.88 58.418 2.823 0.101 7.919 0.332 14.514 0.715 10.981 0.636 21.947 1.465 32.081 2.499 17.582 1.794 31.392 4.327 33.252 5.303 17.944 9.422 40.016 0.001 45.626-19.474-0.349 1.212 9.735-5.443 24.208-9.404 18.112-4.956 35.772-4.4 44.539 0.548 13.038 7.36 29.436 4.696 39.474-6.412 9.88-10.934 98.276-8.979 114.006 4.473 9.386 8.027 22.553 9.936 33.832 4.905 8.955-3.994 46.224 10.294 74.086 31.944 8.367 6.502 19.41 8.44 29.491 5.176 3.454-1.118 7.716-1.050 13.353 0.538 12.355 3.481 27.531 13.136 46.573 29.082 5.396 4.518 7.341 6.222 19.276 16.786 26.462 23.42 65.768-7.018 49.716-38.499-14.092-27.637-16.789-37.859-15.461-40.328 10.93-20.312-2.569-45.165-25.557-47.055 6.766 0.556 8.077 1.582 7.721 1.095-3.155-4.328-6.473-11.037-8.966-18.572-5.369-16.224-5.445-31.376-1.393-38.148 8.077-13.498 5.145-30.865-6.915-40.964-13.087-10.96-13.887-75.216 0.487-88.483 19.847-18.319 9.472-51.47-17.277-55.206-11.718-1.637-33.612-27.826-31.759-45.695 2.306-22.247-18.338-39.936-39.968-34.247-60.28 15.853-172.548-5.144-193.358-41.49-19.632-34.328-16.396-100.97 2.124-172.106 10.414-40.010 27.235-74.944 50.152-102.616 18.457 30.091 29.115 64.257 30.482 98.638 1.915 49.344 10.652 80.966 40.661 103.065 17.614 12.99 41.953 15.272 76.251 12.74 10.836-0.8 22.146-2.118 34.248-3.875 6.277-0.911 10.944-1.654 19.377-3.043 154.491-25.413 230.13 113.919 146.195 196.955-15.018 14.857-11.773 39.931 6.531 50.477 25.167 14.499 36.452 103.647 26.491 113.745-14.578 14.777-11.446 39.308 6.377 49.949 17.982 10.735 27.047 74.714 16.435 89.066-6.006 8.123-7.823 18.605-4.903 28.276 23.966 79.355-38.905 124.195-113.14 113.356-26.58-3.861-80.164-28.376-90.677-45.505-10.584-17.245-34.316-20.461-49.108-6.655 3.915-3.655 1.916-3.3-2.937-3.553-9.399-0.489-21.914-2.656-35.279-6.128-24.848-6.456-48.537-16.846-51.236-19.996-13.147-15.344-37.049-14.812-49.501 1.101 2.676-3.42-1.287-1.755-7.768-0.326-10.727 2.364-24.816 4.006-39.364 4.547-27.020 1.004-51.363-2.775-52.326-3.752-14.563-14.772-39.117-11.996-50.015 5.654-5.634 9.124-80.273 24.587-101.501 14.282-13.827-6.712-30.472-2.646-39.647 9.685-8.893 11.952-51.679 29.798-65.739 22.1-7.93-4.342-17.156-5.054-25.445-2.305-3.427-0.043-8.344-0.571-13.883-1.588-14.012-2.572-28.827-7.579-40.978-14.301-27.904-15.437-36.418-34.157-22.995-65.395 5.783-13.458 1.69-29.124-9.936-38.033-0.369-0.283-3.731-12.914-2.97-27.21 0.414-7.788 1.888-14.73 3.875-19.206 0.565-1.272-0.265-0.381-3.802 0.676 24.22-7.236 30.884-38.376 11.745-54.889-4.657-4.018-9.228-22.027-8.035-42.525 0.594-10.214 2.516-19.558 5.145-25.929 1.054-2.555 0.853-2.316-3.365-1.024 23.405-7.17 29.399-35.656 14.494-52.024-0.361-1.562-0.732-3.636-1.052-6.105-1.275-9.833-1.442-23.258-0.377-37.21 2.099-27.501 9.086-51.234 12.304-53.796 13.099-10.425 15.949-29.185 6.537-43.029-41.735-61.39 20.999-134.442 118.545-101.685 8.928 3.003 26.991 16.963 36.155 33.712 13.958 25.513 10.677 57.984-20.324 102.496-13.453 19.317-2.148 46.059 21.082 49.867 5.677 0.931 45.252 10.719 52.29 13.159-12.16-1.914-56.929-11.345-66.566-11.859z" />
<glyph unicode="&#xe908;" glyph-name="break" d="M1024 157.257v95.086h-160.914v-87.771h160.914zM643.657-128h87.771v160.914h-87.771v-160.914zM885.029-47.543l65.829 65.829-109.714 109.714-65.829-65.829 109.714-109.714zM285.257 896h87.771v-160.914h-87.771v160.914zM0 515.657v95.086h160.914v-87.771h-160.914zM65.829 771.657l65.829 65.829 109.714-109.714-65.829-73.143-109.714 117.029zM241.371 530.286l109.714-109.714-95.086-95.086c-51.2-51.2-51.2-138.971 0-190.171s138.971-51.2 190.171 0l95.086 95.086 117.029-117.029-95.086-95.086c-117.029-117.029-299.886-117.029-416.914 0s-117.029 299.886 0 416.914zM468.114 749.714c117.029 117.029 299.886 117.029 416.914 0s117.029-299.886 0-416.914l-95.086-95.086-117.029 117.029 95.086 95.086c51.2 51.2 51.2 138.971 0 190.171s-138.971 51.2-190.171 0l-95.086-95.086-109.714 109.714z" />
<glyph unicode="&#xe909;" glyph-name="detail" d="M73.143 164.571h146.286v-146.286h-146.286v146.286zM292.571 164.571h658.286v-146.286h-658.286v146.286zM73.143 457.143h146.286v-146.286h-146.286v146.286zM73.143 749.714h146.286v-146.286h-146.286v146.286zM292.571 457.143h658.286v-146.286h-658.286v146.286zM292.571 749.714h658.286v-146.286h-658.286v146.286z" />
<glyph unicode="&#xe90a;" glyph-name="edit-circle" d="M512-128c281.6 0 512 230.4 512 512s-230.4 512-512 512-512-230.4-512-512 230.4-512 512-512zM678.4 452.267l-102.4 102.4 68.267 68.267 102.4-102.4-68.267-68.267zM644.267 418.133l-268.8-268.8h-98.133v102.4l268.8 268.8 98.133-102.4z" />
<glyph unicode="&#xe90b;" glyph-name="dm" d="M450.922 581.216c30.053-5.634 54.469-7.513 80.765-7.513 15.025 0 24.417 0 56.348 0 16.904 0 28.174 0 41.321 0s22.538 0 41.321 0c73.252-1.879 93.913 0 122.085 13.149 50.712 24.417 129.6 46.957 165.287 46.957 56.348 0 84.522-65.739 33.808-112.694s-144.625-99.547-221.633-120.209c-9.391-1.879-16.904-5.634-30.053-7.513 0 0-22.538-5.634-28.174-7.513-22.538-5.634-39.444-11.27-54.469-15.025-5.634-1.879-11.27-3.757-15.025-5.634 3.757-3.757 7.513-9.391 7.513-16.904 1.879-11.27 1.879-16.904-1.879-45.078-1.879-18.783-3.757-28.174-1.879-39.444 0-1.879 0-5.634 0-7.513 7.513-50.712 22.538-92.035 43.199-122.085 15.025-22.538 13.149-45.078-5.634-63.861-13.149-13.149-35.687-24.417-61.982-30.053-37.565-9.391-60.103 5.634-77.007 45.078-5.634 13.149-7.513 16.904-24.417 63.861-1.879 3.757-1.879 7.513-3.757 11.27-56.348-50.712-152.138-82.643-238.537-71.373-150.259 18.783-261.077 137.113-266.711 283.615-5.634 131.477 61.982 212.241 157.772 257.319 13.149 5.634 24.417 11.27 37.565 15.025 3.757 1.879 9.391 3.757 15.025 3.757 0 0 0 1.879 0 3.757-1.879 9.391-3.757 15.025-3.757 22.538 0 24.417 13.149 41.321 41.321 48.835 31.929 7.513 48.835-11.27 54.469-45.078 0-1.879 0-3.757 1.879-7.513 0-1.879 0-3.757 1.879-5.634 0-1.879 0-5.634 1.879-7.513 26.295-1.879 56.348-7.513 88.277-16.904 22.538-7.513 43.199-31.929 43.199-60.103zM289.393 541.772c-58.227-1.879-95.79-26.295-129.6-75.131-30.053-43.199-31.929-90.156-9.391-150.259 1.879-3.757 3.757-9.391 5.634-13.149l-1.879 11.27c61.982 13.149 137.113 135.234 135.234 227.269zM817.18 530.504c0 1.879-1.879 3.757-1.879 7.513 0 0 0 0 0 1.879l31.929 7.513c33.808 24.417 46.957 31.929 60.103 31.929v-33.808c-1.879 0-5.634-1.879-46.957-30.053-1.879 0-1.879-1.879-3.757-1.879l-20.661-18.783c-1.879 1.879-3.757 3.757-3.757 5.634-1.879 0-3.757-1.879-5.634-1.879-5.634-1.879-11.27-3.757-18.783-5.634-1.879 0-16.904-3.757-20.661-5.634-5.634-1.879-9.391-3.757-15.025-3.757l-5.634-7.513c-1.879 1.879-1.879 1.879-3.757 3.757 0 0-1.879 0-1.879 0-1.879 0-1.879 0-1.879 0-15.025-5.634-31.929-9.391-50.712-15.025-3.757 0-7.513-1.879-15.025-3.757l-1.879-1.879c0 0-1.879 1.879-1.879 1.879-13.149-3.757-26.295-5.634-26.295-5.634-13.149-3.757-22.538-5.634-30.053-7.513-3.757-1.879-7.513-1.879-9.391-3.757l-26.295-18.783c-1.879 3.757-3.757 5.634-5.634 9.391-15.025-3.757-31.929-7.513-48.835-11.27 0 0 0-1.879 0-1.879s5.634-13.149 7.513-16.904l-30.053-13.149c-1.879 3.757-7.513 16.904-7.513 16.904-1.879 3.757-1.879 5.634-3.757 7.513-20.661-3.757-41.321-7.513-56.348-9.391 3.757-7.513 9.391-11.27 15.025-15.025l-13.149-30.053c-16.904 7.513-28.174 22.538-37.565 43.199-18.783-1.879-37.565-5.634-60.103-15.025 5.634-7.513 11.27-13.149 18.783-18.783l-16.904-28.174c-13.149 7.513-24.417 18.783-31.929 33.808-20.661-9.391-41.321-20.661-63.861-33.808l-11.27 7.513c-26.295-31.929-54.469-56.348-84.522-65.739 33.808-41.321 95.79-77.007 146.504-77.007 41.321 0 82.643 20.661 123.964 54.469 11.27 9.391 22.538 18.783 33.808 30.053 5.634 5.634 20.661 20.661 22.538 22.538 0 0 7.513 7.513 9.391 9.391 3.757 3.757 7.513 7.513 11.27 11.27 16.904 15.025 31.929 24.417 46.957 31.929v1.879c16.904 11.27 43.199 20.661 82.643 31.929 15.025 3.757 31.929 9.391 54.469 15.025 5.634 1.879 28.174 7.513 28.174 7.513 11.27 3.757 20.661 5.634 30.053 7.513 71.373 18.783 159.651 69.495 206.607 112.694 28.174 28.174 16.904 56.348-11.27 56.348-30.053 0-103.305-22.538-150.259-43.199-33.808-16.904-58.227-18.783-135.234-16.904-16.904 0-28.174 0-39.444 0-13.149 0-22.538 0-41.321 0-31.929 0-41.321 0-56.348 0-30.053 0-56.348 3.757-90.156 9.391-13.149-15.025-35.687-22.538-63.861-16.904-20.661 3.757-39.444 7.513-56.348 7.513 0-48.835-16.904-103.305-43.199-150.259 11.27 5.634 20.661 11.27 30.053 15.025-3.757 15.025-1.879 31.929 3.757 48.835l31.929-11.27c-3.757-7.513-3.757-16.904-1.879-26.295 22.538 7.513 43.199 13.149 61.982 15.025 0 15.025 0 26.295 0 39.444l31.929-1.879c0-11.27 0-20.661 1.879-31.929 16.904 1.879 37.565 3.757 60.103 9.391 0 7.513-1.879 15.025-1.879 22.538l31.929 1.879c0-7.513 0-13.149 1.879-18.783 15.025 3.757 30.053 7.513 45.078 11.27-1.879 5.634-1.879 9.391-3.757 20.661 0 1.879 0 1.879 0 1.879l31.929 5.634c0-1.879 0-1.879 0-1.879 1.879-9.391 1.879-13.149 3.757-16.904 3.757 1.879 7.513 1.879 13.149 3.757 9.391 3.757 18.783 5.634 31.929 9.391 1.879 0 9.391 1.879 16.904 3.757-1.879 3.757-1.879 5.634-3.757 13.149 0 0 0 0 0 1.879l31.929 7.513c0 0 0 0 0-1.879 1.879-7.513 1.879-9.391 3.757-11.27 0 0 0 0 0-1.879 15.025 3.757 30.053 7.513 43.199 13.149 0 1.879-1.879 5.634-3.757 11.27 0 0 0 0 0 1.879l31.929 7.513c0 0 0 0 0-1.879 1.879-3.757 1.879-7.513 1.879-9.391 0 0 0 0 0 0 5.634 1.879 20.661 5.634 20.661 5.634 7.513 1.879 11.27 3.757 16.904 5.634 5.634 0 7.513 0 7.513 0zM578.643 312.627l15.025-30.053c-33.808-16.904-61.982-67.616-43.199-122.085 15.025-45.078 16.904-48.835 22.538-61.982 11.27-26.295 20.661-31.929 39.444-28.174 20.661 5.634 37.565 13.149 46.957 22.538 7.513 7.513 7.513 13.149 1.879 20.661-24.417 33.808-39.444 80.765-48.835 135.234 0 3.757 0 5.634-1.879 9.391-1.879 13.149 0 26.295 1.879 46.957 3.757 22.538 3.757 28.174 1.879 33.808 0 1.879 0 3.757-7.513 3.757-24.417 0-45.078-11.27-69.495-33.808-3.757-3.757-7.513-5.634-11.27-9.391-1.879-1.879-9.391-9.391-9.391-9.391-1.879-1.879-16.904-16.904-22.538-22.538-11.27-11.27-24.417-22.538-35.687-31.929-46.957-39.444-95.79-61.982-144.625-61.982-77.007 0-172.799 61.982-197.216 129.6-24.417 69.495-22.538 127.721 15.025 180.312 56.348 80.765 129.6 105.181 251.685 80.765 22.538-3.757 33.808 1.879 33.808 13.149 1.879 13.149-9.391 28.174-30.053 35.687-30.053 11.27-60.103 15.025-86.399 15.025-11.27 0-18.783 7.513-20.661 16.904-1.879 3.757-1.879 9.391-3.757 16.904 0 3.757 0 5.634-1.879 5.634 0 1.879 0 3.757-1.879 5.634-3.757 18.783-5.634 20.661-15.025 18.783-13.149-3.757-15.025-7.513-15.025-16.904 0-3.757 0-9.391 1.879-15.025 0-1.879 1.879-5.634 1.879-7.513 0-3.757 1.879-5.634 1.879-9.391 0-13.149-7.513-18.783-18.783-22.538-1.879 0-16.904-5.634-20.661-5.634-9.391-3.757-20.661-7.513-31.929-13.149-84.522-41.321-142.747-110.817-138.991-227.269 5.634-131.477 103.305-236.66 238.537-253.564 88.277-11.27 187.825 28.174 231.024 82.643 7.513 52.591 35.687 92.035 71.373 108.939z" />
<glyph unicode="&#xe90c;" glyph-name="dots-circle" d="M733.867 315.733c-38.4 0-68.267 29.867-68.267 68.267s29.867 68.267 68.267 68.267c38.4 0 68.267-29.867 68.267-68.267s-29.867-68.267-68.267-68.267zM512 315.733c-38.4 0-68.267 29.867-68.267 68.267s29.867 68.267 68.267 68.267c38.4 0 68.267-29.867 68.267-68.267s-29.867-68.267-68.267-68.267zM290.133 315.733c-38.4 0-68.267 29.867-68.267 68.267s29.867 68.267 68.267 68.267c38.4 0 68.267-29.867 68.267-68.267s-29.867-68.267-68.267-68.267zM512-128c281.6 0 512 230.4 512 512s-230.4 512-512 512-512-230.4-512-512 230.4-512 512-512z" />
<glyph unicode="&#xe90d;" glyph-name="d-others" d="M512-55.68c-242.14 0-439.68 197.54-439.68 439.68s197.54 439.68 439.68 439.68c242.14 0 439.68-197.54 439.68-439.68s-197.54-439.68-439.68-439.68zM512 872.533c-269.757 0-488.533-218.777-488.533-488.533s218.777-488.533 488.533-488.533 488.533 218.777 488.533 488.533-218.777 488.533-488.533 488.533zM354.819 386.127c0-26.983-21.87-48.853-48.853-48.853s-48.853 21.87-48.853 48.853c0 26.983 21.87 48.853 48.853 48.853s48.853-21.87 48.853-48.853zM562.98 386.127c0-26.983-21.87-48.853-48.853-48.853s-48.853 21.87-48.853 48.853c0 26.983 21.87 48.853 48.853 48.853s48.853-21.87 48.853-48.853zM771.135 386.127c0-26.983-21.87-48.853-48.853-48.853s-48.853 21.87-48.853 48.853c0 26.983 21.87 48.853 48.853 48.853s48.853-21.87 48.853-48.853z" />
<glyph unicode="&#xe90e;" glyph-name="pit" d="M494.435 107.404c-17.766-73.75-26.366-140.653-16.892-162.036 7.123-16.077-0.135-34.884-16.212-42.006s-34.884 0.135-42.006 16.212c-16.416 37.052-10.067 101.245 8.334 182.135-7.028 0.24-14.156 0.727-21.366 1.462-117.693 12.002-203.873 85.512-185.21 178.428-17.499-2.206-30.762-2.038-44.993 0.154-43.88 6.758-67.128 37.339-65.543 85.091-110.546 80.196-64.851 295.64 61.941 361.914 29.916 61.306 151.832 114.45 239.605 93.182 77.495 49.819 225.327 35.775 279.895-28.732 143.444 0.911 232.083-63.776 265.122-205.639 66.89-47.244 54.331-177.627-14.531-217.081-15.7-88.839-192.312-138.428-307.99-111.041-7.338-82.028-62.683-135.097-140.155-152.042zM292.169 293.025c-31.105-61.092 24.183-116.676 120.584-126.507 101.835-10.385 169.833 38.794 157.449 134.947-3.357 26.065 24.526 44.744 47.353 31.722 76.268-43.507 271.501 4.354 262.185 52.909-3.27 17.046 7.715 33.57 24.696 37.152 35.929 7.578 46.876 99.062 11.579 114.774-9.435 4.2-16.248 12.716-18.273 22.843-25.146 125.724-92.274 173.701-220.858 168.285-12.439-0.524-24.042 6.25-29.7 17.34-22.826 44.737-159.922 58.473-208.090 16.345-8.894-7.779-21.365-9.993-32.393-5.751-60.894 23.426-171.779-26.858-177.494-57.362-1.965-10.487-9.052-19.294-18.878-23.455-98.988-41.92-135.726-221.75-51.696-264.398 12.429-6.307 19.309-19.966 16.982-33.708-4.656-27.492-2.236-31.564 10.166-33.475 17.832-2.747 40.719 1.044 98.997 14.849 3.658 0.866 3.658 0.866 7.336 1.733 93.336 21.979 135.249 24.378 169.874-8.386 12.772-12.086 13.329-32.237 1.242-45.009s-32.237-13.329-45.009-1.242c-11.173 10.573-43.22 8.739-111.512-7.344-3.619-0.853-3.619-0.853-7.254-1.714-1.999-0.474-3.961-0.936-5.888-1.39-0.405-1.066-0.872-2.12-1.401-3.159zM541.083 641.917c62.549 26.868 150.751 17.371 188.235-31.57 69.827-7.558 95.934-71.717 84.29-149.124-2.615-17.388-18.832-29.364-36.22-26.748s-29.364 18.832-26.748 36.22c7.597 50.506-5.186 77.858-38.57 76.663-13.203-0.472-25.327 7.259-30.467 19.429-11.899 28.17-86.37 35.467-126.078 11.134-10.846-6.647-24.607-6.2-34.999 1.138-54.418 38.42-98.781 47.117-127.261 19.507-7-6.785-16.721-9.991-26.383-8.698-23.241 3.109-39.226 19.5-43.467 42.605-3.174 17.294 8.273 33.889 25.567 37.063 9.168 1.683 18.139-0.743 25.018-5.971 48.742 28.701 106.992 16.458 167.083-21.649zM432.383 528.030c80.224 28.546 132.896-0.238 161.576-72.185 35.663 0.801 66.205-9.713 83.858-33.66 10.434-14.154 7.418-34.085-6.735-44.52s-34.085-7.418-44.52 6.735c-4.627 6.277-23.473 10.3-49.407 5.997-15.932-2.643-31.318 7.061-35.799 22.576-16.806 58.197-37.582 72.872-87.625 55.065-16.566-5.894-34.775 2.757-40.669 19.323s2.757 34.775 19.323 40.669zM300.605 447.001c5.884-16.57-2.779-34.773-19.349-40.657s-34.773 2.779-40.657 19.349c-2.755 7.757-8.449 16.11-22.155 33.038-0.821 1.014-0.821 1.014-1.652 2.039-46.515 57.385-57.438 94.532-12.981 143.68 11.796 13.040 31.93 14.049 44.97 2.253s14.049-31.93 2.253-44.97c-15.895-17.571-13.631-25.268 15.224-60.866 0.832-1.027 0.832-1.027 1.672-2.064 18.304-22.605 26.659-34.859 32.674-51.802z" />
<glyph unicode="&#xe90f;" glyph-name="history" d="M512 896c-285.257 0-512-226.743-512-512s226.743-512 512-512 512 226.743 512 512c0 285.257-226.743 512-512 512zM512 18.286c-204.8 0-365.714 160.914-365.714 365.714s160.914 365.714 365.714 365.714 365.714-160.914 365.714-365.714-160.914-365.714-365.714-365.714zM585.143 676.571h-146.286v-321.829l168.229-168.229 102.4 102.4-124.343 124.343z" />
<glyph unicode="&#xe910;" glyph-name="break-circle" d="M512 896c-281.6 0-512-230.4-512-512s230.4-512 512-512 512 230.4 512 512c0 281.6-230.4 512-512 512zM733.867 588.8c68.267-68.267 68.267-174.933 0-243.2l-55.467-55.467-64 64 55.467 55.467c29.867 29.867 29.867 81.067 0 110.933-34.133 34.133-85.333 34.133-115.2 0l-55.467-55.467-64 64 55.467 55.467c64 72.533 174.933 72.533 243.2 4.267zM384 682.667h42.667v-85.333h-42.667v85.333zM290.133 635.733l64-64-34.133-38.4-68.267 64 38.4 38.4zM213.333 512h85.333v-42.667h-85.333v42.667zM302.933 157.867c-68.267 68.267-68.267 174.933 0 243.2l55.467 55.467 64-64-55.467-55.467c-29.867-29.867-29.867-81.067 0-110.933s81.067-29.867 110.933 0l55.467 55.467 64-64-55.467-55.467c-64-72.533-174.933-72.533-238.933-4.267zM640 85.333h-42.667v85.333h42.667v-85.333zM733.867 119.467l-64 64 38.4 38.4 64-64-38.4-38.4zM810.667 256h-85.333v42.667h85.333v-42.667z" />
<glyph unicode="&#xe911;" glyph-name="db-circle" d="M512 572.632c-105.095 0-188.632-35.032-188.632-67.368s83.537-67.368 188.632-67.368 188.632 35.032 188.632 67.368-83.537 67.368-188.632 67.368zM512 896c-282.947 0-512-229.053-512-512s229.053-512 512-512 512 229.053 512 512-229.053 512-512 512zM512 141.474c-132.042 0-242.526 40.421-242.526 107.789h53.895c0-21.558 83.537-53.895 188.632-53.895s188.632 32.337 188.632 53.895h53.895c0-67.368-110.484-107.789-242.526-107.789zM512 222.316c-132.042 0-242.526 40.421-242.526 107.789h53.895c0-21.558 83.537-53.895 188.632-53.895s188.632 32.337 188.632 53.895h53.895c0-67.368-110.484-107.789-242.526-107.789zM512 303.158c-132.042 0-242.526 40.421-242.526 107.789h53.895c0-21.558 83.537-53.895 188.632-53.895s188.632 32.337 188.632 53.895h53.895c0-67.368-110.484-107.789-242.526-107.789zM512 384c-132.042 0-242.526 48.505-242.526 121.263s110.484 121.263 242.526 121.263 242.526-48.505 242.526-121.263c0-72.758-110.484-121.263-242.526-121.263z" />
<glyph unicode="&#xe912;" glyph-name="files-o" d="M123.733 211.2v539.733c0 14.933 12.8 27.733 29.867 27.733h290.133v-42.667h192l-149.333 149.333h-426.667c-23.467 0-42.667-19.2-42.667-42.667v-725.333c0-23.467 19.2-42.667 42.667-42.667h234.667v106.667h-140.8c-17.067 0-29.867 14.933-29.867 29.867zM806.4 693.333h-426.667c-23.467 0-42.667-19.2-42.667-42.667v-725.333c0-23.467 19.2-42.667 42.667-42.667h576c23.467 0 42.667 19.2 42.667 42.667v576l-192 192zM891.733 19.2c0-14.933-12.8-29.867-29.867-29.867h-388.267c-14.933 0-29.867 12.8-29.867 29.867v539.733c0 14.933 12.8 29.867 29.867 29.867h290.133v-85.333c0-23.467 19.2-42.667 42.667-42.667h85.333v-441.6z" />
<glyph unicode="&#xe913;" glyph-name="leu" d="M226.747 351.379c15.384 57.173 38.496 106.033 82.085 182.056 4.36 7.604 8.816 15.318 17.631 30.558 79.318 137.322 107.524 211.259 106.612 320.766-0.221 26.537 31.042 40.85 50.985 23.343 152.953-134.27 284.116-335.6 335.788-518.99 59.836-212.366 9.425-380.099-163.723-448.894-246.239-97.827-511.809 104.635-429.377 411.161zM379.665 533.263c-8.834-15.273-13.231-22.886-17.533-30.388-41.15-71.769-62.39-116.67-76.055-167.456-68.545-254.887 145.699-418.22 347.361-338.103 139.045 55.245 179.487 189.81 127.271 375.133-42.936 152.385-145.936 320.189-269.455 444.539-10.001-89.691-43.648-166.099-111.59-283.726zM350.217 241.46c3.73 16.551 20.17 26.945 36.722 23.216s26.945-20.17 23.216-36.722c-6.522-28.944 8.319-60.447 42.57-84.38 17.647-12.333 44.876-19.488 68.668-17.442 16.904 1.453 31.785-11.072 33.238-27.976s-11.072-31.785-27.976-33.238c-38.023-3.268-79.587 7.653-109.124 28.295-53.463 37.358-79.735 93.124-67.314 148.247z" />
<glyph unicode="&#xe914;" glyph-name="ignore" d="M219.429 530.286h292.571v-73.143h-292.571v73.143zM292.571 91.429v-146.286h-292.571v877.714h804.571v-292.571h-146.286v146.286h-512v-585.143zM219.429 310.857h73.143v-73.143h-73.143v73.143zM768 230.4l-153.6 153.6-102.4-102.4 153.6-153.6-153.6-153.6 102.4-102.4 153.6 153.6 153.6-153.6 102.4 102.4-153.6 153.6 153.6 153.6-102.4 102.4z" />
<glyph unicode="&#xe915;" glyph-name="crowd-exploration" horiz-adv-x="975" d="M589.483 462.144l-48.361-119.698 95.718-36.743c30.903 43.726 81.852 72.278 139.469 72.278 94.257 0 170.667-76.41 170.667-170.667s-76.41-170.667-170.667-170.667c-94.257 0-170.667 76.41-170.667 170.667 0 1.963 0.033 3.918 0.099 5.865l-101.158 38.831-43.345-107.282c28.543-26.696 46.382-64.694 46.382-106.859 0-80.791-65.494-146.286-146.286-146.286s-146.286 65.494-146.286 146.286c0 80.791 65.494 146.286 146.286 146.286 3.531 0 7.032-0.125 10.5-0.371l41.688 103.181-107.838 41.395c-31.217-40.312-80.087-66.264-135.019-66.264-94.257 0-170.667 76.41-170.667 170.667s76.41 170.667 170.667 170.667c94.257 0 170.667-76.41 170.667-170.667 0-4.518-0.176-8.995-0.52-13.424l109.249-41.937 49.321 122.073c-47.21 35.598-77.729 92.152-77.729 155.834 0 107.722 87.326 195.048 195.048 195.048s195.048-87.326 195.048-195.048c0-107.722-87.326-195.048-195.048-195.048-9.237 0-18.323 0.642-27.218 1.884zM170.667 359.619c40.396 0 73.143 32.747 73.143 73.143s-32.747 73.143-73.143 73.143c-40.396 0-73.143-32.747-73.143-73.143s32.747-73.143 73.143-73.143zM776.309 134.171c40.396 0 73.143 32.747 73.143 73.143s-32.747 73.143-73.143 73.143c-40.396 0-73.143-32.747-73.143-73.143s32.747-73.143 73.143-73.143zM361.335-10.893c26.93 0 48.762 21.831 48.762 48.762s-21.831 48.762-48.762 48.762c-26.93 0-48.762-21.831-48.762-48.762s21.831-48.762 48.762-48.762zM616.701 557.784c53.861 0 97.524 43.663 97.524 97.524s-43.663 97.524-97.524 97.524c-53.861 0-97.524-43.663-97.524-97.524s43.663-97.524 97.524-97.524z" />
<glyph unicode="&#xe916;" glyph-name="lock" d="M917.333-117.333h-810.667c-23.467 0-42.667 19.2-42.667 42.667v533.333c0 23.467 19.2 42.667 42.667 42.667h85.333v89.6c0 162.133 151.467 294.4 320 294.4s320-132.267 320-294.4v-89.6h85.333c23.467 0 42.667-19.2 42.667-42.667v-533.333c0-23.467-19.2-42.667-42.667-42.667zM691.2 590.933c0 96-78.933 172.8-179.2 172.8s-179.2-76.8-179.2-172.8v-89.6h358.4v89.6z" />
<glyph unicode="&#xe917;" glyph-name="lookInfo" d="M913.277 109.398l73.551-144.347c16.044-31.487 3.525-70.019-27.962-86.063s-70.019-3.525-86.063 27.962l-80.683 158.342c-7.956-0.745-16.019-1.127-24.171-1.127-141.357 0-255.949 114.592-255.949 255.949s114.592 255.949 255.949 255.949c141.357 0 255.949-114.592 255.949-255.949 0-87.383-43.789-164.537-110.622-210.717zM639.975 0.179c35.339 0 63.987-28.648 63.987-63.987s-28.648-63.987-63.987-63.987h-447.911c-106.018 0-191.962 85.944-191.962 191.962v639.872c0 106.018 85.944 191.962 191.962 191.962h447.911c106.018 0 191.962-85.944 191.962-191.962 0-35.339-28.648-63.987-63.987-63.987s-63.987 28.648-63.987 63.987c0 35.339-28.648 63.987-63.987 63.987h-447.911c-35.339 0-63.987-28.648-63.987-63.987v-639.872c0-35.339 28.648-63.987 63.987-63.987h447.911zM256.052 512.076c-35.339 0-63.987 28.648-63.987 63.987s28.648 63.987 63.987 63.987h255.949c35.339 0 63.987-28.648 63.987-63.987s-28.648-63.987-63.987-63.987h-255.949zM256.052 320.115c-35.339 0-63.987 28.648-63.987 63.987s28.648 63.987 63.987 63.987h127.974c35.339 0 63.987-28.648 63.987-63.987s-28.648-63.987-63.987-63.987h-127.974zM767.95 192.14c70.678 0 127.974 57.297 127.974 127.974s-57.297 127.974-127.974 127.974c-70.678 0-127.974-57.297-127.974-127.974s57.297-127.974 127.974-127.974z" />
<glyph unicode="&#xe918;" glyph-name="logo-ydcloud" d="M759.808 160.768v0h-36.864v75.776h-77.824v-75.776h-75.776v-77.824h75.776v-79.872h77.824v79.872h38.912c12.288 0 26.624 2.048 38.912 4.096v79.872c-10.24-4.096-24.576-6.144-40.96-6.144 2.048 0 2.048 0 0 0zM948.224 533.504c-49.152 49.152-116.736 77.824-186.368 77.824-18.432 0-36.864-2.048-53.248-6.144-12.288 30.72-32.768 59.392-55.296 83.968-49.152 49.152-114.688 75.776-184.32 75.776s-135.168-26.624-184.32-75.776c-47.104-47.104-73.728-106.496-75.776-172.032-118.784-6.144-210.944-100.352-210.944-215.040 0-116.736 94.208-210.944 212.992-215.040h8.192l307.2-2.048v77.824l-307.2 2.048c0 0 0 0 0 0-77.824 0-141.312 61.44-141.312 137.216s63.488 137.216 141.312 137.216c40.96 0 77.824-16.384 102.4-43.008-22.528 30.72-36.864 67.584-36.864 108.544 0 100.352 81.92 182.272 182.272 182.272s182.272-81.92 182.272-182.272c0-2.048 0-6.144 0-8.192 30.72 22.528 69.632 36.864 112.64 36.864 102.4 0 186.368-83.968 186.368-186.368 0-71.68-40.96-133.12-100.352-165.888v-83.968c36.864 12.288 71.68 34.816 100.352 63.488 49.152 49.152 77.824 116.736 77.824 186.368s-26.624 135.168-77.824 186.368z" />
<glyph unicode="&#xe919;" glyph-name="eye2" d="M30.859 369.702c68.264 207.7 262.799 350.849 484.881 350.849s416.613-143.147 484.881-350.849l5.816-17.702-5.816-17.702c-68.264-207.7-262.799-350.849-484.881-350.849s-416.613 143.147-484.881 350.849l-5.816 17.702 5.816 17.702zM515.741 96.849c166.344 0 312.843 103.275 370.865 255.151-58.012 151.878-204.511 255.151-370.865 255.151s-312.843-103.275-370.865-255.151c58.012-151.878 204.511-255.151 370.865-255.151zM515.741 238.599c-78.283 0-141.749 63.465-141.749 141.749s63.465 141.749 141.749 141.749c78.283 0 141.749-63.465 141.749-141.749s-63.465-141.749-141.749-141.749zM515.741 295.301c46.975 0 85.054 38.079 85.054 85.054s-38.079 85.054-85.054 85.054c-46.975 0-85.054-38.079-85.054-85.054s38.079-85.054 85.054-85.054z" />
<glyph unicode="&#xe91a;" glyph-name="db" d="M51.2 435.2h102.4c0-40.96 158.72-102.4 358.4-102.4s358.4 61.44 358.4 102.4h102.4c0-128-209.92-204.8-460.8-204.8s-460.8 76.8-460.8 204.8zM51.2 281.6h102.4c0-40.96 158.72-102.4 358.4-102.4s358.4 61.44 358.4 102.4h102.4c0-128-209.92-204.8-460.8-204.8s-460.8 76.8-460.8 204.8zM51.2 128h102.4c0-40.96 158.72-102.4 358.4-102.4s358.4 61.44 358.4 102.4h102.4c0-128-209.92-204.8-460.8-204.8s-460.8 76.8-460.8 204.8zM512 486.4c-199.68 0-358.4 66.56-358.4 128s158.72 128 358.4 128 358.4-66.56 358.4-128-158.72-128-358.4-128zM512 384c250.88 0 460.8 92.16 460.8 230.4s-209.92 230.4-460.8 230.4-460.8-92.16-460.8-230.4 209.92-230.4 460.8-230.4z" />
<glyph unicode="&#xe91b;" glyph-name="minus" d="M0 457.142h1024v-146.285h-1024v146.285z" />
<glyph unicode="&#xe91c;" glyph-name="list-check" d="M496.64 215.040l117.76-117.76 276.48 276.48 71.68-71.68-348.16-348.16-189.44 189.44 71.68 71.68zM51.2 179.2h307.2v-102.4h-307.2v102.4zM51.2 486.4h665.6v-102.4h-665.6v102.4zM51.2 793.6h870.4v-102.4h-870.4v102.4z" />
<glyph unicode="&#xe91d;" glyph-name="past" d="M558.933 704v-315.733l179.2-179.2-68.267-68.267-209.067 209.067v354.133h98.133zM512-128c281.6 0 512 230.4 512 512s-230.4 512-512 512-512-230.4-512-512 230.4-512 512-512z" />
<glyph unicode="&#xe91e;" glyph-name="npc" d="M677.504-37.408c8.719 0.042 17.29 0.153 25.652 0.336 26.173 0.581 39.115 12.515 41.783 27.396 3.251 12.056 18.979 83.218 18.559 81.39 12.795 55.684 22.574 87.507 35.808 105.424 88.255 119.948 116.557 276.383 69.79 407.267-40.416 113.31-130.756 187.697-250.769 205.484-111.833 16.545-214.84 2.413-286.653-46.396-65.159-44.251-97.765-111.568-97.334-195.061 0.052-16.7-6.645-25.56-27.869-47.903-1.529-1.61-32.704-33.443-42.496-44.038-20.763-22.466-35.499-41.479-44.618-58.604-4.721-8.866-7.66-16.792-8.832-23.563-1.41-8.223 5.46-17.074 29.294-34.3 1.959-1.416 9.525-6.82 11.288-8.092 4.648-3.355 8.266-6.056 11.676-8.761 1.845-1.475 1.845-1.475 3.683-2.998l12.213-10.221-1.314-15.871c-0.901-10.887-1.624-21.2-2.163-30.966 0.802 0.542 1.616 1.083 2.443 1.623 13.841 9.042 29.996 16.813 48.589 23.011 66.905 22.302 134.253 22.302 201.158 0 40.765-13.588 79.17-46.812 105.251-83.357-8.375 24.846-29.41 55.515-49.708 69.040-42.325 28.203-44.497 81.29-10.198 110.412 28.708 24.375 68.121 29.785 106.211 11.178 37.137-18.141 59.108-48.417 70.597-92.757 4.14-15.978 7.977-61.089 15.173-164.78 0.695-10.038 0.695-10.038 1.39-20.107 5.186-75.252 9.242-128.849 11.395-154.786zM524.504-32.032c4.138 5.112 8.808 11.139 13.45 17.563 2.311 3.199 4.469 6.306 6.445 9.292-2.753-0.603-5.45-0.928-8.053-0.928 0.291 0 0.375 0.005-2.042-0.142-12.408-0.743-22.759 0.003-34.473 4.247-29.038 10.521-46.041 37.989-46.041 80.171 0 49.147-27.018 78.128-82.237 91.941-51.030 12.765-66.372 12.365-109.146 0.217-14.835-4.213-33.7-15.376-50.098-29.277-6.563-5.564-12.216-11.154-16.244-15.961 1.173-1.489 2.396-2.906 3.669-4.253 14.676-15.545 32.881-17.91 91.197-13.954 21.446 1.455 32.639 2.008 46.123 2.008h10.533l64.426-50.064v-15.033c0-3.537-0.426-7.001-1.229-10.387-1.631-6.879-4.344-12.371-8.549-18.992-0.596-0.938-5.809-8.788-7.138-10.973-2.636-4.335-4.426-8.139-5.77-12.582-0.735-2.375-1.844-0.353 4.348-3.094 18.623-8.203 69.709-15.257 130.829-19.797zM297.148 794.315c86.463 58.765 204.452 74.953 330.18 56.352 142.499-21.12 251.607-110.96 299.633-245.604 53.909-150.873 21.771-328.512-78.199-464.382-5.952-8.059-14.965-37.391-25.383-82.726 0.776 3.376-15.436-69.976-18.491-80.772-6.838-40.268-43.88-74.426-100.374-75.68-126.179-2.771-288.212 9.16-335.654 30.057-33.11 14.656-48.804 43.259-38.285 77.263 2.888 9.558 6.786 17.877 11.86 26.262l-15.727 12.221c-8.281-0.233-17.501-0.766-31.616-1.724-77.159-5.235-107.598-1.28-140.025 33.068-38.952 41.232-47.501 100.635-40.223 203.685-2.090 1.503-8.989 6.431-11.012 7.894-41.764 30.185-60.703 54.585-53.852 94.527 2.392 13.82 7.558 27.753 15.148 42.007 12.097 22.72 29.697 45.427 53.728 71.429 10.524 11.387 42.113 43.644 43.073 44.653 5.054 5.32 8.652 9.346 11.004 12.307 1.36 100.113 43.33 184.229 124.217 239.162zM184.088 186.824c19.715 15.653 43.042 28.838 63.773 34.726 51.561 14.643 76.358 15.29 136.614 0.217 77.299-19.336 122.563-67.889 122.563-143.597 0-20.877 4.205-27.67 10.931-30.107 3.346-1.212 7.379-1.503 13.15-1.157 1.996 0.138 3.707 0.238 5.227 0.238-2.254 0 7.718 6.257 12.312 10.745 33.976 33.193 60.688-1.603 60.688-41.698 0-14.229-6.551-28.896-18.117-47.022-1.866-2.925-3.853-5.905-5.949-8.934l5.34-0.804c3.452-0.058 9.252-0.144 16.255-0.231 7.769-0.092 11.064-0.127 16.195-0.167 0.452-0.004 0.9-0.007 1.345-0.010-2.511 25.966-5.679 71.285-11.427 154.696-0.694 10.061-0.694 10.061-1.388 20.082-6.602 95.125-10.777 144.223-13.598 155.11-7.827 30.204-20.378 47.5-42.423 58.269-18.86 9.213-35.611 6.914-48.375-3.924-7.661-6.505-7.224-17.191 5.261-25.511 32.704-21.792 62.093-65.905 72.667-102.845 9.416-32.894 9.416-80.419-1.896-102.521-3.142-6.139-5.444-10.053-8.599-13.858-8.122-9.795-19.918-15.645-34.463-10.523-15.748 5.546-21.184 16.74-29.333 43.983-11.498 38.437-56.154 90.543-100.285 105.253-55.975 18.658-111.507 18.658-167.482 0-14.292-4.764-26.315-10.548-36.307-17.075-11.893-7.769-19.015-14.917-22.583-19.778l-0.096-13.555z" />
<glyph unicode="&#xe91f;" glyph-name="socket" d="M146.286 896h731.429c80.791 0 146.286-65.494 146.286-146.286v-731.429c0-80.791-65.494-146.286-146.286-146.286h-731.429c-80.791 0-146.286 65.494-146.286 146.286v731.429c0 80.791 65.494 146.286 146.286 146.286zM219.429 749.714c-40.396 0-73.143-32.747-73.143-73.143v-585.143c0-40.396 32.747-73.143 73.143-73.143h585.143c40.396 0 73.143 32.747 73.143 73.143v585.143c0 40.396-32.747 73.143-73.143 73.143h-585.143zM365.714 310.857h292.571c40.396 0 73.143-32.747 73.143-73.143s-32.747-73.143-73.143-73.143h-292.571c-40.396 0-73.143 32.747-73.143 73.143s32.747 73.143 73.143 73.143zM365.714 603.429h292.571c40.396 0 73.143-32.747 73.143-73.143s-32.747-73.143-73.143-73.143h-292.571c-40.396 0-73.143 32.747-73.143 73.143s32.747 73.143 73.143 73.143z" />
<glyph unicode="&#xe920;" glyph-name="project-circle" d="M323.368 249.263c0-29.642 24.253-53.895 53.895-53.895h269.474c29.642 0 53.895 24.253 53.895 53.895v188.632h-377.263v-188.632zM646.737 572.632h-269.474c-29.642 0-53.895-24.253-53.895-53.895v-26.947h377.263v26.947c0 29.642-24.253 53.895-53.895 53.895zM485.053 518.737h-107.789v26.947h107.789v-26.947zM565.895 518.737h-53.895v26.947h53.895v-26.947zM512 896c-282.947 0-512-229.053-512-512s229.053-512 512-512 512 229.053 512 512-229.053 512-512 512zM754.526 249.263c0-59.284-48.505-107.789-107.789-107.789h-269.474c-59.284 0-107.789 48.505-107.789 107.789v269.474c0 59.284 48.505 107.789 107.789 107.789h269.474c59.284 0 107.789-48.505 107.789-107.789v-269.474z" />
<glyph unicode="&#xe921;" glyph-name="notifications_none" d="M721.231 120.615v315.077c0 130.462-78.769 236.308-209.231 236.308s-209.231-105.846-209.231-236.308v-315.077h418.462zM827.077 174.769l105.846-105.846v-51.692h-841.846v51.692l105.846 105.846v260.923c0 162.462 86.154 295.385 236.308 332.308v36.923c0 44.308 34.462 78.769 78.769 78.769s78.769-34.462 78.769-78.769v-36.923c150.154-36.923 236.308-172.308 236.308-332.308v-260.923zM512-140.308c-56.615 0-105.846 46.769-105.846 103.385h211.692c0-56.615-49.231-103.385-105.846-103.385z" />
<glyph unicode="&#xe922;" glyph-name="cnog" d="M82.353 202.301c-37.853 22.712-49.209 71.924-24.605 109.778 1.893 1.893 3.785 7.571 9.463 13.249 5.678 9.463 13.249 18.927 18.927 30.283 3.785 5.678 5.678 9.463 9.463 15.141 11.356 18.927 17.034 34.068 17.034 37.853 0 1.893 0 1.893 0 3.785 0 11.356 0 18.927 0 37.853-3.785 98.422 1.893 145.738 32.175 208.199 51.102 117.348 208.199 213.877 389.898 213.877 236.589 0 444.789-183.595 444.789-406.932 0-198.736-51.102-308.514-185.487-403.147-28.39-18.927-32.175-35.961-30.283-111.67 0-13.249 0-22.712 0-32.175 0-13.249-11.356-22.712-22.712-22.712h-399.362c-13.249 0-22.712 11.356-22.712 22.712v77.602c0 15.141-3.785 18.927-18.927 18.927h-58.673c-68.139 0-111.67 30.283-128.704 105.992-11.356 37.853-15.141 60.565-17.034 73.817l-13.249 7.571zM716.414-49.433c-1.893 90.851 5.678 119.241 51.102 149.524 121.134 85.173 166.558 179.806 166.558 363.401 0 196.843-185.487 359.616-397.469 359.616-164.665 0-304.725-85.173-352.045-185.487-26.497-52.995-30.283-94.636-26.497-185.487 0-18.927 0-28.39 0-39.746 0-1.893 0-1.893 0-5.678 0-15.141-7.571-35.961-22.712-60.565-3.785-5.678-5.678-11.356-9.463-17.034-5.678-11.356-13.249-20.819-20.819-32.175-3.785-3.785-7.571-7.571-9.463-9.463-9.463-15.141-5.678-34.068 9.463-43.531l22.712-13.249c7.571-3.785 11.356-11.356 11.356-20.819 0 0 0-1.893 1.893-9.463 1.893-13.249 7.571-35.961 15.141-68.139 11.356-52.995 35.961-70.032 83.28-70.032h58.673c41.639 0 66.246-24.605 66.246-66.246v-22.712c0-7.571 0-11.356 0-18.927 49.209-11.356 62.461-11.356 176.021-11.356h83.28c56.78 0 70.032 0 92.744 0 0 3.785 0 5.678 0 7.571zM309.479 658.443c15.141 54.887 66.246 92.744 141.953 107.885 107.885 20.819 221.448 0 304.725-73.817 83.28-71.924 130.597-206.307 115.456-295.262-13.249-79.495-64.354-160.88-111.67-160.88-66.246 0-104.1 34.068-104.1 102.207 0 41.639-7.571 45.424-54.887 45.424-60.565 0-113.563 32.175-113.563 90.851 0 41.639-1.893 43.531-43.531 43.531-98.422 1.893-158.987 52.995-134.382 140.060zM345.442 648.979c-17.034-58.673 22.712-90.851 98.422-90.851 60.565 0 81.388-15.141 81.388-81.388 0-34.068 32.175-52.995 75.71-52.995 66.246 0 92.744-15.141 92.744-83.28 0-47.317 20.819-64.354 66.246-64.354 22.712 0 64.354 66.246 75.71 128.704 11.356 75.71-30.283 196.843-104.1 261.194s-174.128 85.173-272.55 66.246c-64.354-15.141-102.207-43.531-113.563-83.28z" />
<glyph unicode="&#xe923;" glyph-name="caret-up" d="M512 640l512-512h-1024z" />
<glyph unicode="&#xe924;" glyph-name="research" d="M102.4 307.2c0-184.32 148.48-332.8 332.8-332.8 174.080 0 317.44 133.12 332.8 307.2h-358.4v358.4c-174.080-15.36-307.2-158.72-307.2-332.8zM870.4 384v-76.8c0-240.64-194.56-435.2-435.2-435.2s-435.2 194.56-435.2 435.2 194.56 435.2 435.2 435.2h76.8v-358.4h358.4zM665.6 788.48v-250.88h250.88c-20.48 128-122.88 230.4-250.88 250.88zM1024 486.4v-51.2h-460.8v460.8h51.2c225.28 0 409.6-184.32 409.6-409.6z" />
<glyph unicode="&#xe925;" glyph-name="cog" d="M512 91.429c160.914 0 292.571 131.657 292.571 292.571s-131.657 292.571-292.571 292.571-292.571-131.657-292.571-292.571 131.657-292.571 292.571-292.571zM80.457 457.143c14.629 65.829 36.571 131.657 73.143 182.857l-51.2 51.2 102.4 102.4 51.2-51.2c51.2 36.571 117.029 65.829 182.857 73.143v80.457h146.286v-80.457c65.829-14.629 131.657-36.571 190.171-80.457l58.514 58.514 102.4-102.4-58.514-58.514c36.571-51.2 58.514-109.714 73.143-175.543h73.143v-146.286h-80.457c-14.629-65.829-36.571-131.657-73.143-182.857l58.514-58.514-102.4-102.4-58.514 58.514c-51.2-36.571-117.029-65.829-182.857-73.143v-80.457h-146.286v80.457c-65.829 7.314-124.343 36.571-175.543 73.143l-58.514-58.514-102.4 102.4 58.514 58.514c-43.886 51.2-73.143 117.029-80.457 182.857h-80.457v146.286h80.457z" />
<glyph unicode="&#xe926;" glyph-name="close-o" d="M468.315 384l-174.739-174.739c-12.063-12.063-12.063-31.622 0-43.685s31.622-12.063 43.685 0l174.739 174.739 174.739-174.739c12.063-12.063 31.622-12.063 43.685 0s12.063 31.622 0 43.685l-174.739 174.739 174.739 174.739c12.063 12.063 12.063 31.622 0 43.685s-31.622 12.063-43.685 0v0l-174.739-174.739-174.739 174.739c-12.063 12.063-31.622 12.063-43.685 0s-12.063-31.622 0-43.685l174.739-174.739zM512-128c-282.77 0-512 229.23-512 512s229.23 512 512 512c282.77 0 512-229.23 512-512s-229.23-512-512-512z" />
<glyph unicode="&#xe927;" glyph-name="check-o" d="M322.56 440.32l-66.56-66.56 220.16-220.16 322.56 322.56-66.56 66.56-256-256-153.6 153.6zM512-128c-281.6 0-512 230.4-512 512s230.4 512 512 512 512-230.4 512-512-230.4-512-512-512z" />
<glyph unicode="&#xe928;" glyph-name="copy" d="M177.177 551.408c-26.418 0-47.834-21.415-47.834-47.834v-430.486c0-26.418 21.415-47.834 47.834-47.834h430.486c26.418 0 47.834 21.415 47.834 47.834v430.486c0 26.418-21.415 47.834-47.834 47.834h-430.486zM272.842 647.074v47.834c0 79.25 64.247 143.492 143.492 143.492h430.486c79.25 0 143.492-64.247 143.492-143.492v-430.486c0-79.25-64.247-143.492-143.492-143.492h-95.665v-47.834c0-79.25-64.247-143.492-143.492-143.492h-430.486c-79.25 0-143.492 64.247-143.492 143.492v430.486c0 79.25 64.247 143.492 143.492 143.492h95.665zM368.508 647.074h239.16c79.25 0 143.492-64.247 143.492-143.492v-286.993h95.665c26.418 0 47.834 21.415 47.834 47.834v430.486c0 26.418-21.415 47.834-47.834 47.834h-430.486c-26.418 0-47.834-21.415-47.834-47.834v-47.834z" />
<glyph unicode="&#xe929;" glyph-name="question-o" d="M491.52 578.56h40.96c35.84 0 66.56-35.84 66.56-76.8 0-25.6-15.36-46.080-51.2-71.68-5.12 0-5.12-5.12-10.24-5.12 0 0-10.24-5.12-10.24-5.12-35.84-20.48-51.2-66.56-51.2-102.4v-15.36c0-20.48 15.36-40.96 40.96-40.96 20.48 0 40.96 15.36 40.96 40.96v15.36c0 15.36 5.12 35.84 15.36 35.84 5.12 0 15.36 10.24 10.24 5.12 5.12 5.12 10.24 5.12 15.36 10.24 56.32 35.84 87.040 71.68 87.040 133.12 0 87.040-66.56 153.6-143.36 153.6h-51.2c-81.92 0-143.36-71.68-143.36-153.6 0-20.48 15.36-40.96 40.96-40.96s40.96 15.36 40.96 40.96c-10.24 40.96 25.6 76.8 61.44 76.8zM512 102.4c30.72 0 51.2 20.48 51.2 51.2s-20.48 51.2-51.2 51.2c-30.72 0-51.2-20.48-51.2-51.2s20.48-51.2 51.2-51.2zM512-128c-281.6 0-512 230.4-512 512s230.4 512 512 512 512-230.4 512-512-230.4-512-512-512z" />
<glyph unicode="&#xe92a;" glyph-name="close" d="M439.452 384l-292.932-292.932c-18.383-18.383-18.439-48.636 0.188-67.26l5.1-5.1c18.693-18.693 48.739-18.708 67.26-0.188l292.932 292.932 292.932-292.932c18.383-18.383 48.636-18.439 67.26 0.188l5.1 5.1c18.693 18.693 18.708 48.739 0.188 67.26l-292.932 292.932 292.932 292.932c18.383 18.383 18.439 48.636-0.188 67.26l-5.1 5.1c-18.693 18.693-48.739 18.708-67.26 0.188l-292.932-292.932-292.932 292.932c-18.383 18.383-48.636 18.439-67.26-0.188l-5.1-5.1c-18.693-18.693-18.708-48.739-0.188-67.26l292.932-292.932z" />
<glyph unicode="&#xe92b;" glyph-name="caret-down" d="M512 128l-512 512h1024z" />
<glyph unicode="&#xe92c;" glyph-name="person" d="M204.8 25.6h563.2c0 138.24-122.88 256-281.6 256s-281.6-117.76-281.6-256zM870.4 0v-76.8h-768v102.4c0 138.24 81.92 261.12 204.8 317.44-61.44 51.2-102.4 133.12-102.4 220.16 0 153.6 128 281.6 281.6 281.6s281.6-128 281.6-281.6c0-87.040-40.96-168.96-102.4-220.16 122.88-61.44 204.8-179.2 204.8-317.44v-25.6zM486.4 384c97.28 0 179.2 81.92 179.2 179.2s-81.92 179.2-179.2 179.2c-97.28 0-179.2-81.92-179.2-179.2s81.92-179.2 179.2-179.2z" />
<glyph unicode="&#xe92d;" glyph-name="info-o" d="M113.776 384c0-219.971 178.266-398.224 398.224-398.224 219.971 0 398.224 178.266 398.224 398.224 0 219.971-178.266 398.224-398.224 398.224-219.971 0-398.224-178.266-398.224-398.224zM0 384c0 282.768 229.168 512 512 512 282.768 0 512-229.168 512-512 0-282.768-229.168-512-512-512-282.768 0-512 229.168-512 512zM512 497.776c-31.418 0-56.887-25.47-56.887-56.887v0-284.444c0-31.418 25.47-56.887 56.887-56.887v0c31.418 0 56.887 25.47 56.887 56.887v284.444c0 31.418-25.47 56.887-56.887 56.887zM512 668.444c-31.418 0-56.887-25.47-56.887-56.887v0 0c0-31.418 25.47-56.887 56.887-56.887v0c31.418 0 56.887 25.47 56.887 56.887v0c0 31.418-25.47 56.887-56.887 56.887v0z" />
<glyph unicode="&#xe92e;" glyph-name="edit-round" d="M819.2 435.2c0 30.72 20.48 51.2 51.2 51.2s51.2-20.48 51.2-51.2v-358.4c0-56.32-46.080-102.4-102.4-102.4h-614.4c-56.32 0-102.4 46.080-102.4 102.4v614.4c0 56.32 46.080 102.4 102.4 102.4h358.4c30.72 0 51.2-20.48 51.2-51.2s-20.48-51.2-51.2-51.2c-240.64 0-358.4 0-358.4 0 0-409.6 0-614.4 0-614.4 409.6 0 614.4 0 614.4 0v358.4zM445.44 235.52c-20.48-20.48-51.2-20.48-71.68 0s-20.48 51.2 0 71.68l471.040 471.040c20.48 20.48 51.2 20.48 71.68 0s20.48-51.2 0-71.68l-471.040-471.040z" />
<glyph unicode="&#xe92f;" glyph-name="bladder" d="M502.696 736.534c-64.765 0-135.292-12.967-201.545-34.558-49.584-16.159-92.996-36.844-99.808-43.988-30.746-32.245-79.116-14.647-159.708 38.565-14.717 9.717-18.699 29.418-8.894 44.003s29.685 18.532 44.402 8.814c30.782-20.324 55.029-33.624 71.999-39.798 4.54-1.652 8.203-2.659 10.827-3.131 47.744 40.826 214.515 93.56 342.727 93.56 106.8 0 218.94-30.876 336.293-92.142l2.801-1.648c22.526-14.838 56.275-4.793 105.69 40.134 13.031 11.848 33.287 10.983 45.242-1.931s11.083-32.988-1.948-44.836c-67.925-61.756-130.349-80.724-182.953-47.183-108.141 56.253-209.807 84.14-305.126 84.14zM800 384.076c0-0.025 0-0.050 0-0.076 0-63.23-45.848-115.752-106.113-126.136-10.321-6.24-21.28-11.892-32.892-16.915-57.631-24.928-69.291-30.778-72.106-50.136 10.109 4.363 21.445 7.882 34.057 10.493 108.72 22.51 178.327 73.25 218.11 144.117 27.131 48.33 37.432 99.713 37.432 145.931 0 50.040 32.893 96.691 94.654 141.208 14.302 10.308 34.328 7.176 44.73-6.998s7.241-34.020-7.061-44.329c-46.862-33.778-68.282-64.156-68.282-89.882 0-56.116-12.349-117.716-45.51-176.786-48.821-86.967-134.075-149.112-260.977-175.387-31.147-6.449-44.147-17.537-48.099-37.481 0.032-3.045-0.368-5.99-1.144-8.782-0.121-1.667-0.198-3.387-0.237-5.16-0.353-16.253-0.353-45.58 0.006-87.758 0.149-17.525-14.065-31.852-31.749-32s-32.141 13.939-32.29 31.464c-0.365 42.781-0.365 72.593 0.006 89.661 0.127 5.85 0.563 11.528 1.317 17.022-0.338 34.028-0.32 57.89 0.063 71.835 1.451 52.835 15.21 74.628 72.048 103.037-31.524 23.315-51.965 60.76-51.965 102.979 0 70.692 57.308 128 128 128 33.646 0 64.261-12.982 87.107-34.21 4.463 31.949 4.289 61.353 1.919 68.842-3.354 1.288-8.343 5.017-14.537 9.109-14.886 9.834-34.496 20.36-56.415 29.908-55.973 24.381-118.233 39.117-179.223 39.117-23.392 0-46.059-1.642-67.964-4.755 2.839-9.068 4.369-18.715 4.369-28.719 0-53.019-42.981-96-96-96-39.461 0-73.361 23.809-88.118 57.844-0.867-0.605-1.719-1.207-2.554-1.807-2.983-2.14-5.879-10.383-5.031-27.637 1.261-25.654 11.35-61.735 31.213-107.049 18.093-41.275 41.811-70.46 72.046-93.005 11.654-8.69 23.993-16.238 38.997-24.186 6.903-3.656 32.352-16.361 38-19.364 48.794-25.945 64.327-54.508 64.996-106.934 0.181-14.189 0.207-39.594 0.079-76.317 0.008-0.311 0.016-0.623 0.023-0.935 0.371-17.067 0.371-48.801 0.006-95.468-0.137-17.525-14.584-31.622-32.268-31.486s-31.909 14.452-31.772 31.978c0.238 30.438 0.318 54.426 0.244 71.887-0.238 1.585-0.359 3.208-0.351 4.86 0.028 6.423 0.053 12.559 0.074 18.407-0.935 30.383-9.789 42.49-45.468 49.878-224.922 46.57-317.172 198.461-317.172 349.682 0 25.91-18.85 53.484-60.596 82.58-14.465 10.082-17.945 29.876-7.772 44.212s30.147 17.784 44.612 7.702c57.182-39.854 87.797-84.638 87.797-134.493 0-41.477 12.777-95.259 42.228-143.749 42.786-70.447 114.809-121.2 224-143.808 10.61-2.197 20.222-5 28.895-8.389-3.786 9.911-11.646 15.862-27.834 24.469-4.691 2.495-30.080 15.169-37.91 19.317-17.693 9.372-32.73 18.57-47.313 29.444-38.91 29.015-69.68 66.876-92.279 118.431-46.195 105.383-49.825 179.22-4.999 211.382 12.051 8.646 25.172 16.977 39.314 24.82 14.307 35.041 48.727 59.734 88.914 59.734 15.98 0 31.048-3.904 44.302-10.811 35.473 7.476 74.001 11.751 115.293 11.751 130.347 0 289.521-69.334 309.192-116.864 9.588-23.168 8.783-89.263-5.947-145.113-3.852-14.605-8.542-28.69-14.095-42.179zM161.886 706.171c0.388-0.036 0.737-0.053 1.046-0.053-0.107 0-0.223-0.006-0.347-0.018l-0.699 0.071zM351.257 559.292c17.673 0 32 14.327 32 32s-14.327 32-32 32c-17.673 0-32-14.327-32-32s14.327-32 32-32zM672 320c35.346 0 64 28.654 64 64s-28.654 64-64 64c-35.346 0-64-28.654-64-64s28.654-64 64-64z" />
<glyph unicode="&#xe930;" glyph-name="copy-round" d="M177.179 551.411c-26.417 0-47.832-21.415-47.832-47.832v-430.485c0-26.417 21.415-47.832 47.832-47.832h430.485c26.417 0 47.832 21.415 47.832 47.832v430.485c0 26.417-21.415 47.832-47.832 47.832h-430.485zM272.842 647.074v47.832c0 79.25 64.246 143.494 143.494 143.494h430.485c79.25 0 143.494-64.246 143.494-143.494v-430.485c0-79.25-64.246-143.494-143.494-143.494h-95.663v-47.832c0-79.25-64.246-143.494-143.494-143.494h-430.485c-79.25 0-143.494 64.246-143.494 143.494v430.485c0 79.25 64.246 143.494 143.494 143.494h95.663zM368.506 647.074h239.158c79.25 0 143.494-64.246 143.494-143.494v-286.989h95.663c26.417 0 47.832 21.415 47.832 47.832v430.485c0 26.417-21.415 47.832-47.832 47.832h-430.485c-26.417 0-47.832-21.415-47.832-47.832v-47.832z" />
<glyph unicode="&#xe931;" glyph-name="condition-limit" d="M356.174 428.522h133.565v97.138c0 44.707 39.866 80.949 89.043 80.949h356.174c49.177 0 89.043-36.242 89.043-80.949v-283.32c0-44.707-39.866-80.949-89.043-80.949h-356.174c-49.177 0-89.043 36.242-89.043 80.949v97.138h-133.565c0-49.177-39.866-89.043-89.043-89.043h-178.087c-49.177 0-89.043 39.866-89.043 89.043v89.043c0 49.177 39.866 89.043 89.043 89.043h178.087c49.177 0 89.043-39.866 89.043-89.043zM578.783 517.565v-267.13h356.174v267.13h-356.174zM89.044 428.522v-89.043h178.087v89.043h-178.087z" />
<glyph unicode="&#xe932;" glyph-name="emr" d="M32-128v928h224v96h512v-96h224v-928h-960zM672 800h-320v-96h320v96zM896 704h-128v-96h-512v96h-128v-736h768v736zM800 352h-608v96h608v-96zM448 128h-256v96h256v-96z" />
<glyph unicode="&#xe933;" glyph-name="ecrf" d="M819.2 588.8v0-563.2h-614.4v716.8h409.6c0-112.64 92.16-204.8 204.8-204.8v51.2zM102.4 742.4v-716.8c0-56.32 46.080-102.4 102.4-102.4h614.4c56.32 0 102.4 46.080 102.4 102.4v563.2c0 15.36-5.12 25.6-15.36 35.84l-204.8 204.8c-5.12 10.24-20.48 15.36-35.84 15.36h-460.8c-56.32 0-102.4-46.080-102.4-102.4zM307.2 640h204.8v-102.4h-204.8v102.4zM307.2 435.2h409.6v-102.4h-409.6v102.4zM307.2 230.4h409.6v-102.4h-409.6v102.4z" />
<glyph unicode="&#xe934;" glyph-name="safari" d="M542.72 414.72l40.96-102.4-102.4 40.96-40.96 102.4 102.4-40.96zM312.32 522.24l87.040-225.28c5.12-15.36 15.36-25.6 25.6-25.6l225.28-87.040c40.96-15.36 76.8 25.6 61.44 61.44l-87.040 225.28c-5.12 15.36-15.36 25.6-25.6 25.6l-225.28 87.040c-40.96 15.36-76.8-20.48-61.44-61.44zM512-25.6c-225.28 0-409.6 184.32-409.6 409.6s184.32 409.6 409.6 409.6 409.6-184.32 409.6-409.6-184.32-409.6-409.6-409.6zM512-128c281.6 0 512 230.4 512 512s-230.4 512-512 512-512-230.4-512-512 230.4-512 512-512z" />
<glyph unicode="&#xe935;" glyph-name="chart" d="M51.2 793.6c0 30.72 20.48 51.2 51.2 51.2s51.2-20.48 51.2-51.2c0-476.16 0-716.8 0-716.8h768c30.72 0 51.2-20.48 51.2-51.2s-20.48-51.2-51.2-51.2h-768c-56.32 0-102.4 46.080-102.4 102.4v716.8zM281.6 332.8l76.8 107.52c0 5.12 0 10.24 0 20.48 0 40.96 35.84 76.8 76.8 76.8s76.8-35.84 76.8-76.8c0 0 0-5.12 0-5.12l71.68-71.68c0 0 5.12 0 5.12 0s5.12 0 5.12 0l174.080 215.040c0 5.12 0 10.24 0 15.36 0 40.96 35.84 76.8 76.8 76.8s76.8-35.84 76.8-76.8c0-40.96-30.72-71.68-71.68-76.8l-184.32-225.28c0 0 0 0 0-5.12 0-40.96-35.84-76.8-76.8-76.8s-76.8 35.84-76.8 76.8c0 0 0 0 0 0l-71.68 71.68-81.92-112.64c0-5.12 0-5.12 0-10.24 0-40.96-35.84-76.8-76.8-76.8s-76.8 35.84-76.8 76.8c0 40.96 35.84 76.8 76.8 76.8z" />
<glyph unicode="&#xe936;" glyph-name="persons" d="M758.911 406.261c3.491 1.863 7.267 3.33 11.282 4.327 64.911 16.128 111.337 74.724 111.337 142.595 0 54.419-29.807 103.544-76.759 129.128-23.751 12.941-32.513 42.686-19.572 66.437s42.686 32.513 66.437 19.572c78.134-42.575 127.841-124.499 127.841-215.137 0-69.428-29.127-133.010-76.67-177.994 131.744-59.756 223.592-199.174 223.592-360.719 0-27.048-21.926-48.974-48.974-48.974s-48.974 21.926-48.974 48.974c0 163.063-121.439 293.843-269.357 293.843-27.048 0-48.974 21.926-48.974 48.974 0 26.986 21.827 48.874 48.79 48.974zM235.097 315.895c-82.876 57.469-137.149 153.284-137.149 261.774 0 175.809 142.521 318.33 318.33 318.33s318.331-142.521 318.331-318.33c0-108.49-54.273-204.305-137.149-261.774 139.141-67.37 235.097-209.923 235.097-374.887 0-27.048-21.926-48.974-48.974-48.974s-48.974 21.926-48.974 48.974c0 175.809-142.521 318.33-318.331 318.33s-318.33-142.521-318.33-318.33c0-27.048-21.926-48.974-48.974-48.974s-48.974 21.926-48.974 48.974c0 164.964 95.955 307.516 235.097 374.887zM416.278 357.287c121.714 0 220.383 98.669 220.383 220.383s-98.669 220.383-220.383 220.383c-121.714 0-220.382-98.669-220.382-220.383s98.669-220.383 220.382-220.383z" />
<glyph unicode="&#xe937;" glyph-name="nsclc" d="M610.752 253.907c-38.103 13.063-68.16 34.437-94.161 63.597-1.101 1.235-2.193 2.48-3.284 3.743-26.776-26.619-60.382-47.927-99.741-61.567-1.203-24.728-1.567-46.381-1.818-85.828-0.45-70.806-2.095-91.998-13.411-114.669-16.268-32.578-38.023-36.65-103.064-36.65-19.312 0-28.092-0.157-38.635-0.904-23.456-1.661-40.798-6.102-53.999-14.366-71.055-44.468-147.17-24.319-168.362 50.977-34.277 121.839-5.717 284.353 63.558 423.137 70.535 141.31 165.308 222.241 239.483 168.756 39.609-28.569 62.288-89.627 72.636-176.094 11.184 6.522 18.111 13.045 18.387 17.979 0.8 14.483-0.035 57.458-2.375 138.677-0.186 6.448-0.186 6.448-0.374 12.883-2.832 97.315-3.321 116.611-2.985 130.766 0.398 16.731 14.283 29.971 31.014 29.574s29.971-14.283 29.574-31.014c-0.295-12.42 0.24-33.577 2.975-127.563 0.187-6.442 0.187-6.442 0.374-12.901 2.436-84.551 3.254-126.642 2.307-143.785-3.232-57.85-94.74-101.588-179.188-101.588-16.736 0-30.302 13.567-30.302 30.302s13.567 30.302 30.302 30.302c13.897 0 28.118 1.796 41.668 4.725-7.93 78.16-25.824 131.531-49.463 148.58-28.462 20.523-94.509-35.878-149.809-146.667-63.116-126.447-89.094-274.264-59.443-379.655 9.248-32.858 38.565-40.619 77.869-16.021 22.974 14.382 49.392 21.148 81.872 23.448 12.434 0.881 22.186 1.056 42.916 1.056 36.725 0 48.373 2.181 48.841 3.117 5.121 10.259 6.663 30.126 7.030 87.983 0.199 31.227 0.469 51.668 1.165 71.272-13.732-1.733-27.958-2.633-42.646-2.633-16.736 0-30.302 13.567-30.302 30.302s13.567 30.302 30.302 30.302c82.204 0 144.209 33.907 180.044 83.017 11.856 16.248 35.962 16.648 48.35 0.802 0.062-0.080 9.007-11.61 11.643-14.935 4.412-5.566 8.25-10.182 12.124-14.527 34.639-38.849 76.914-58.477 152.631-58.477 16.736 0 30.302-13.567 30.302-30.302s-13.567-30.302-30.302-30.302c-15.044 0-29.186 0.708-42.519 2.11 0.645-18.856 0.901-38.823 1.082-68.553 0.344-56.614 1.853-75.994 6.874-86.051 0.471-0.944 12.115-3.124 48.841-3.124 20.73 0 30.482-0.175 42.916-1.056 32.481-2.301 58.9-9.070 81.871-23.454 39.294-24.597 68.617-16.835 77.857 16.019 29.656 105.395 3.682 253.211-59.434 379.657-55.301 110.79-121.352 167.191-149.819 146.667-23.962-17.278-41.992-71.844-49.763-151.655 14.020-3.513 28.506-5.768 42.097-5.768 16.736 0 30.302-13.567 30.302-30.302s-13.567-30.302-30.302-30.302c-77.067 0-168.707 46.396-178.368 91.004-5.247 24.183-4.584 257.984-0.868 302.208 1.401 16.677 16.056 29.060 32.733 27.659s29.060-16.056 27.659-32.733c-3.231-38.465-3.882-267.76-0.294-284.294 0.707-3.264 7.661-8.773 18.481-14.786 10.231 87.545 32.967 149.349 72.88 178.129 74.177 53.481 168.953-27.45 239.488-168.759 69.275-138.784 97.831-301.299 63.549-423.135-21.175-75.297-97.307-95.451-168.357-50.976-13.198 8.264-30.538 12.707-53.993 14.368-10.543 0.747-19.322 0.904-38.635 0.904-65.038 0-86.798 4.074-103.064 36.66-11.212 22.459-12.831 43.253-13.254 112.751-0.227 37.29-0.569 58.678-1.664 81.962v0z" />
<glyph unicode="&#xe938;" glyph-name="arrow-up" d="M915.2 518.4l-390.4 377.6-393.6-377.6h262.4v-582.4c0-35.2 28.8-64 64-64h128c35.2 0 64 28.8 64 64v582.4h265.6z" />
<glyph unicode="&#xe939;" glyph-name="print" d="M966.4 726.4h-176v60.8c0 28.8-25.6 54.4-57.6 54.4h-444.8c-32 0-57.6-22.4-57.6-54.4v-57.6h-172.8c-32-3.2-57.6-25.6-57.6-54.4v-531.2c0-28.8 25.6-54.4 57.6-54.4h166.4v-108.8c0-28.8 25.6-54.4 57.6-54.4h464c32 0 57.6 22.4 57.6 54.4v108.8h166.4c32 0 57.6 22.4 57.6 54.4v531.2c-3.2 28.8-28.8 51.2-60.8 51.2zM700.8 35.2h-374.4v268.8h371.2v-268.8zM908.8 224c0-16-12.8-25.6-28.8-25.6h-80v160c0 28.8-25.6 54.4-57.6 54.4h-460.8c-32 0-57.6-22.4-57.6-54.4v-160h-83.2c-16 0-28.8 12.8-28.8 25.6v371.2c3.2 12.8 16 25.6 28.8 25.6h739.2c16 0 28.8-12.8 28.8-25.6v-371.2zM816 576h-41.6c-16 0-32-12.8-32-32v-41.6c0-16 12.8-32 32-32h41.6c16 0 32 12.8 32 32v41.6c0 16-12.8 32-32 32z" />
<glyph unicode="&#xe93a;" glyph-name="arrow-down" d="M656 249.6v582.4c0 35.2-28.8 64-64 64h-128c-35.2 0-64-28.8-64-64v-582.4h-265.6l393.6-377.6 393.6 377.6h-265.6z" />
<glyph unicode="&#xe93b;" glyph-name="person-add" d="M486.4 384c97.28 0 179.2 81.92 179.2 179.2s-81.92 179.2-179.2 179.2-179.2-81.92-179.2-179.2 81.92-179.2 179.2-179.2zM204.8 25.6h307.2v-102.4h-409.6v102.4c10.24 138.24 92.16 256 209.92 317.44-66.56 51.2-107.52 128-107.52 220.16 0 153.6 128 281.6 281.6 281.6s281.6-128 281.6-281.6c0-153.6-128-281.6-281.6-281.6-148.48 0-266.24-112.64-281.6-256zM716.8 128v102.4h102.4v-102.4h102.4v-102.4h-102.4v-102.4h-102.4v102.4h-102.4v102.4h102.4z" />
<glyph unicode="&#xe93c;" glyph-name="caret-left" d="M256 384l512 512v-1024z" />
<glyph unicode="&#xe93d;" glyph-name="lightbulb-o" d="M528 896h-64c-192 0-352-156.8-352-352 0-137.6 76.8-252.8 192-310.4v-48c0-35.2 28.8-64 64-64h256c35.2 0 64 28.8 64 64v48c112 57.6 192 176 192 310.4-3.2 195.2-160 352-352 352zM582.4 323.2h-22.4v-80h-128v80h-22.4c-99.2 25.6-176 115.2-176 224 0 128 102.4 230.4 230.4 230.4h67.2c128 0 230.4-102.4 230.4-230.4-3.2-108.8-76.8-201.6-179.2-224zM656 60.8h-320c-16 0-32-12.8-32-32v-64c0-16 12.8-32 32-32h32v-28.8c0-16 12.8-32 32-32h195.2c16 0 32 12.8 32 32 0 3.2 0 16 0 28.8h28.8c16 0 32 12.8 32 32v64c-3.2 16-16 32-32 32z" />
<glyph unicode="&#xe93e;" glyph-name="import2" d="M153.6 486.4v-460.8h716.8v460.8h102.4v-460.8c0-56.32-46.080-102.4-102.4-102.4h-716.8c-56.32 0-102.4 46.080-102.4 102.4v460.8h102.4zM563.2 353.28l117.76 117.76 71.68-71.68-240.64-240.64-240.64 240.64 71.68 71.68 117.76-117.76v440.32h102.4v-440.32z" />
<glyph unicode="&#xe93f;" glyph-name="hcc" d="M982.32 676.443c41.68-45.833 13.617-106.433-62.101-203.237-8.287-10.595-17.198-21.658-27.413-34.086-6.025-7.33-47.644-57.209-57.928-69.952-65.076-80.636-199.603-125.912-273.033-90.095-18.225 8.897-33.948 21.94-47.788 38.291-33.97-88.019-101.33-161.811-175.843-208.39-9.873-6.173-20.155-12.952-31.763-20.885-5.96-4.073-12.029-8.284-19.802-13.722-0.924-0.646-15.154-10.622-19.211-13.451-15.508-10.817-26.174-18.003-36.237-24.27-31.578-19.666-53.060-28.059-75.607-22.445-39.252 9.77-49.692 35.77-58.11 99.048-14.176 106.563-20.519 137.733-49.631 205.833-47.853 111.964-29.673 250.219 51.998 331.364 79.684 79.171 206.615 100.682 391.845 82.816 99.024 26.151 448.305-10.285 490.624-56.815zM466.242 399.179c-0.075 2.785-0.075 2.785 0.16 6.721 0.13 5.151 0.13 5.151 8.42 19.896 31.090 14.288 31.090 14.288 46.993 3.285 5.745-5.923 5.745-5.923 7.545-8.875 1.471-2.358 2.654-4.639 4.455-8.348 11.77-24.238 14.158-28.776 22.55-40.8 10.689-15.316 22.282-26.392 34.563-32.388 42.685-20.821 145.149 13.664 192.344 72.144 10.693 13.25 52.586 63.457 58.303 70.413 9.9 12.044 18.486 22.704 26.409 32.834 27.83 35.58 46.863 63.97 57.359 86.636 9.071 19.587 9.658 29.21 7.915 31.128-6.669 7.333-95.042 25.619-193.498 35.564-107.009 10.809-204.462 11.278-233.82 0.952-4.591-1.614-9.481-2.2-14.324-1.711-170.749 17.195-282.453-1.059-345.028-63.23-61.147-60.753-75.505-169.942-37.76-258.256 18.446-43.147 31.139-85.199 40.008-128.788 3.454-16.974 6.239-33.663 8.844-52.168 1.489-10.575 5.632-42.915 5.537-42.196 4.693-35.282 7.923-43.325 8.393-43.442 2.056-0.512 8.325 3.392 97.419 64.288 12.3 8.407 23.31 15.665 34.030 22.367 77.264 48.298 146.3 132.455 163.629 227.168-0.235 2.674-0.382 4.871-0.448 6.807z" />
<glyph unicode="&#xe940;" glyph-name="bc" d="M806.701 61.334c8.603-19.362 45.176-105.407 55.929-126.913 2.151-4.301 4.301-8.603 4.301-12.904 0-10.753-8.603-19.362-19.362-19.362s-17.211 6.452-19.362 17.211c-8.603 21.513-47.327 105.407-55.929 126.913-45.176 111.859-32.266 258.134-25.814 316.214-4.301 0-6.452-2.151-8.603-2.151-17.211-2.151-32.266-4.301-45.176-4.301-58.080 0-96.798 17.211-120.461 34.417-34.417 23.663-51.628 58.080-55.929 79.593 0 2.151-2.151 6.452-2.151 8.603-38.718-98.949-150.577-126.913-238.772-118.311 8.603-60.231 19.362-204.355-23.663-314.063-8.603-21.513-45.176-105.407-55.929-126.913-2.151-8.603-10.753-17.211-19.362-17.211-10.753 0-19.362 8.603-19.362 19.362 0 4.301 2.151 8.603 4.301 12.904 8.603 21.513 47.327 105.407 55.929 126.913 45.176 111.859 25.814 266.737 19.362 309.762-25.814 10.753-47.327 25.814-64.532 49.477-32.266 43.019-38.718 101.099-32.266 137.673 32.266 137.673 2.151 240.923 0 245.224 0 2.151 0 4.301 0 6.452 0 10.753 8.603 19.362 19.362 19.362 8.603 0 15.061-6.452 19.362-12.904 2.151-4.301 34.417-116.16 0-264.586-4.301-23.663 0-70.984 25.814-105.407 17.211-23.663 43.019-38.718 75.291-43.019 19.362-2.151 176.391-10.753 208.657 114.009 0 2.151 2.151 8.603 2.151 12.904 0 6.452 2.151 10.753 4.301 17.211 4.301 17.211 15.061 21.513 23.663 21.513 17.211 0 23.663-19.362 25.814-27.965 4.301-12.904 8.603-32.266 12.904-58.080 6.452-27.965 47.327-98.949 178.541-81.743 27.965 4.301 68.833 21.513 92.497 55.929 23.663 32.266 30.115 75.291 19.362 126.913-8.603 58.080-19.362 182.843 6.452 236.621 2.151 6.452 10.753 10.753 17.211 10.753 10.753 0 19.362-8.603 19.362-19.362 0-2.151 0-6.452-2.151-8.603-19.362-38.718-12.904-148.426-2.151-212.958 10.753-62.381 2.151-114.009-25.814-154.878-19.362-27.965-45.176-45.176-68.833-55.929-8.603-36.567-30.115-202.205 15.061-318.365zM712.054 476.497v0c0 15.061 12.904 25.814 27.965 25.814s27.965-12.904 27.965-25.814-15.061-27.965-30.115-27.965c-15.061 0-25.814 12.904-25.814 27.965zM264.619 476.497c0 15.061 12.904 25.814 27.965 25.814s25.814-10.753 25.814-25.814-12.904-27.965-27.965-27.965-25.814 12.904-25.814 27.965z" />
<glyph unicode="&#xe941;" glyph-name="gc" d="M428.609 840.832c3.606 18.745 21.726 31.017 40.471 27.41s31.017-21.726 27.41-40.471c-20.595-107.039-3.601-191.115 55.808-265.322 98.327-122.808-99.603-296.473-265.952-257.389-136.409 32.056-196.051-26.316-211.836-158.058-5.226-43.624-4.736-88.384-0.577-141.672 0.558-7.15 2.45-29.476 2.243-26.968 0.796-9.639 1.143-15.079 1.143-19.659 0-19.089-15.475-34.563-34.563-34.563s-34.563 15.475-34.563 34.563c0 1.983-0.276 6.318-0.908 13.968 0.224-2.714-1.689 19.858-2.268 27.281-4.482 57.432-5.016 106.23 0.859 155.272 20.177 168.407 113.778 260.017 296.282 217.128 112.766-26.495 243.301 88.036 196.177 146.892-72.806 90.942-93.965 195.617-69.727 321.586zM291.5 43.050c-20.223 24.129-48.956 74.162-60.975 96.265-17.499-24.591-27.22-98.143-17.9-176.528 2.254-18.956-11.285-36.148-30.24-38.402s-36.148 11.285-38.402 30.24c-15.179 127.652 5.504 241.234 80.033 260.048 23.448 5.91 42.242-4.323 56.335-23.133 1.809-2.415 42.816-78.658 64.128-104.087 19.233-22.948 42.376-42.338 71.294-58.232 102.3-56.219 317.416 2.495 430.502 155.875 100.016 135.681 100.926 345.805 13.23 402.448-52.351 33.815-129.772 33.212-171.001 6.973-14.304-9.103-33.1-6.486-44.373 6.178-68.23 76.647-90.046 166.478-65.466 244.047 5.766 18.197 25.192 28.274 43.389 22.507s28.274-25.192 22.507-43.389c-15.048-47.486-4.438-103.646 34.679-156.84 63.995 25.726 152.595 20.69 217.771-21.41 126.989-82.023 125.882-337.417 4.904-501.535-132.824-180.151-385.408-249.092-519.437-175.436-36.631 20.134-66.38 45.058-90.979 74.408z" />
<glyph unicode="&#xe942;" glyph-name="timeline" d="M819.2 537.6c30.72 0 51.2-20.48 51.2-51.2v-204.8c0-30.72-20.48-51.2-51.2-51.2s-51.2 20.48-51.2 51.2v204.8c0 30.72 20.48 51.2 51.2 51.2zM512 844.8c30.72 0 51.2-20.48 51.2-51.2v-512c0-30.72-20.48-51.2-51.2-51.2s-51.2 20.48-51.2 51.2v512c0 30.72 20.48 51.2 51.2 51.2zM204.8 640c30.72 0 51.2-20.48 51.2-51.2v-307.2c0-30.72-20.48-51.2-51.2-51.2s-51.2 20.48-51.2 51.2v307.2c0 30.72 20.48 51.2 51.2 51.2zM732.16 76.8h-128c-15.36 30.72-51.2 51.2-87.040 51.2s-71.68-20.48-87.040-51.2h-138.24c-15.36 30.72-51.2 51.2-87.040 51.2s-71.68-20.48-87.040-51.2h-15.36c-30.72 0-51.2-20.48-51.2-51.2s20.48-51.2 51.2-51.2h15.36c15.36-30.72 51.2-51.2 87.040-51.2s71.68 20.48 87.040 51.2h128c15.36-30.72 51.2-51.2 87.040-51.2s71.68 20.48 87.040 51.2h128c15.36-30.72 51.2-51.2 87.040-51.2s71.68 20.48 87.040 51.2h25.6c30.72 0 51.2 20.48 51.2 51.2s-20.48 51.2-51.2 51.2h-15.36c-15.36 30.72-51.2 51.2-87.040 51.2s-71.68-20.48-87.040-51.2z" />
<glyph unicode="&#xe943;" glyph-name="manage" d="M96.464 740.174v-241.159h241.159v241.159h-241.159zM96.464 836.637h241.159c53.276 0 96.464-43.188 96.464-96.464v-241.159c0-53.276-43.188-96.464-96.464-96.464h-241.159c-53.276 0-96.464 43.188-96.464 96.464v241.159c0 53.276 43.188 96.464 96.464 96.464zM96.464 209.624v-241.159h241.159v241.159h-241.159zM96.464 306.087h241.159c53.276 0 96.464-43.188 96.464-96.464v-241.159c0-53.276-43.188-96.464-96.464-96.464h-241.159c-53.276 0-96.464 43.188-96.464 96.464v241.159c0 53.276 43.188 96.464 96.464 96.464zM747.594 790.12l-170.525-170.525 170.525-170.525 170.525 170.525-170.525 170.525zM986.329 687.805c37.671-37.671 37.671-98.749 0-136.42l-170.525-170.525c-37.671-37.671-98.749-37.671-136.42 0l-170.525 170.525c-37.671 37.671-37.671 98.749 0 136.42l170.525 170.525c37.671 37.671 98.749 37.671 136.42 0l170.525-170.525zM627.014 209.624v-241.159h241.159v241.159h-241.159zM627.014 306.087h241.159c53.276 0 96.464-43.188 96.464-96.464v-241.159c0-53.276-43.188-96.464-96.464-96.464h-241.159c-53.276 0-96.464 43.188-96.464 96.464v241.159c0 53.276 43.188 96.464 96.464 96.464z" />
<glyph unicode="&#xe944;" glyph-name="caret-right" d="M768 384l-512-512v1024z" />
<glyph unicode="&#xe945;" glyph-name="edit-line" d="M697.697 754.24l-538.158-538.158-29.758-155.685 155.685 29.758 538.158 538.158-125.927 125.926zM311.707 5.066h665.748c25.707 0 46.545-19.933 46.545-44.522s-20.839-44.522-46.545-44.522h-930.91c-25.707 0-46.545 19.933-46.545 44.522s20.839 44.522 46.545 44.522h13.446c-8.657 10.899-14.877 23.995-17.671 38.614-2.111 11.045-2.111 22.39 0 33.435l29.758 155.685c3.349 17.521 11.883 33.632 24.497 46.246l538.158 538.158c34.773 34.773 91.153 34.773 125.926 0l125.926-125.926c34.773-34.773 34.773-91.153 0-125.927l-538.158-538.158c-10.29-10.291-22.909-17.866-36.722-22.126zM603.251 659.795l-62.964-62.964 125.927-125.926 62.964 62.964-125.926 125.926z" />
<glyph unicode="&#xe946;" glyph-name="approval" d="M457.292-34.91c25.706 0 46.545-20.839 46.545-46.545s-20.839-46.545-46.545-46.545h-302.545c-77.119 0-139.636 62.517-139.636 139.636v744.728c0 77.119 62.517 139.636 139.636 139.636h651.637c77.119 0 139.636-62.517 139.636-139.636v-325.818c0-25.706-20.839-46.545-46.545-46.545s-46.545 20.839-46.545 46.545v325.818c0 25.706-20.839 46.545-46.545 46.545h-651.637c-25.706 0-46.545-20.839-46.545-46.545v-744.728c0-25.706 20.839-46.545 46.545-46.545h302.545zM694.499 1.172l227.396 227.396c19.83 19.83 50.64 21.169 68.817 2.992s16.838-48.988-2.992-68.817l-257.317-257.317c-0.487-0.487-0.98-0.963-1.48-1.427-0.492-0.527-0.996-1.049-1.512-1.565-18.177-18.177-43.964-21.861-57.597-8.228l-181.019 181.019c-13.633 13.633-9.949 39.42 8.228 57.597s43.964 21.861 57.597 8.228l139.879-139.879zM294.383 570.181h372.364c25.706 0 46.545-20.839 46.545-46.545s-20.839-46.545-46.545-46.545h-372.364c-25.706 0-46.545 20.839-46.545 46.545s20.839 46.545 46.545 46.545zM294.383 337.454h279.273c25.706 0 46.545-20.839 46.545-46.545s-20.839-46.545-46.545-46.545h-279.273c-25.706 0-46.545 20.839-46.545 46.545s20.839 46.545 46.545 46.545z" />
<glyph unicode="&#xe947;" glyph-name="lock-line" d="M186.182 430.545c-25.706 0-46.545-20.839-46.545-46.545v-372.364c0-25.706 20.839-46.545 46.545-46.545h651.637c25.706 0 46.545 20.839 46.545 46.545v372.364c0 25.706-20.839 46.545-46.545 46.545h-651.637zM186.182 523.636h651.637c77.119 0 139.636-62.517 139.636-139.636v-372.364c0-77.119-62.517-139.636-139.636-139.636h-651.637c-77.119 0-139.636 62.517-139.636 139.636v372.364c0 77.119 62.517 139.636 139.636 139.636zM651.637 523.636v139.636c0 77.119-62.517 139.636-139.636 139.636s-139.636-62.517-139.636-139.636v-139.636h279.273zM279.273 430.545v232.727c0 128.532 104.196 232.727 232.727 232.727s232.727-104.196 232.727-232.727v-232.727h-465.455zM512.001 244.364c25.706 0 46.545-20.839 46.545-46.545v-93.091c0-25.706-20.839-46.545-46.545-46.545s-46.545 20.839-46.545 46.545v93.091c0 25.706 20.839 46.545 46.545 46.545z" />
<glyph unicode="&#xe948;" glyph-name="schedule" d="M320 704h448v-128h-448v128zM64 832h128v-896h-128v896zM320 448h576v-128h-576v128zM320 192h256v-128h-256v128z" />
<glyph unicode="&#xe949;" glyph-name="search" d="M798.979 177.899l173.664-173.664c22.333-22.333 22.333-58.545 0-80.878s-58.545-22.333-80.878 0l-173.664 173.664c-72.16-55.133-162.336-87.881-260.159-87.881-236.885 0-428.918 192.032-428.918 428.918s192.032 428.918 428.918 428.918c236.885 0 428.918-192.032 428.918-428.918 0-97.823-32.748-187.999-87.881-260.159zM457.94 123.521c173.715 0 314.54 140.825 314.54 314.54s-140.825 314.54-314.54 314.54c-173.715 0-314.54-140.825-314.54-314.54s140.825-314.54 314.54-314.54z" />
<glyph unicode="&#xe94a;" glyph-name="pathology" d="M636.416-50.5l46.381 117.858c-15.89 0.225-32.662 0.422-50.111 0.582-17.822 0.163-36.453 0.307-58.576 0.456-8.442 0.057-29.833 0.194-43.221 0.28 1.55-6.402 0.989-13.36-2.070-19.768-7.068-14.804-24.799-21.073-39.601-14.005-219.296 104.709-259.857 376.173-47.497 448.488-3.422 15.612-6.488 32.016-9.009 48.298-96.123-10.739-182.025-77.554-213.849-166.354-35.364-98.68 0.795-204.352 115.787-290.329 1.313-0.822 2.566-1.748 3.746-2.773 5.022-3.681 10.189-7.326 15.503-10.931 13.575-9.21 17.114-27.68 7.905-41.254s-27.68-17.114-41.254-7.905c-1.589 1.078-3.166 2.16-4.734 3.246-19.271-9.902-38.863-22.185-52.939-33.565-1.229-0.993-2.403-1.971-3.52-2.927 14.615-2.456 33.972-5.023 57.293-7.605 50.836-5.629 118.731-11.133 189.843-15.473 45.437-2.772 90.029-4.937 129.926-6.319zM699.637-52.069c26.236-0.335 47.689-0.115 63.233 0.667 7.413 0.373 13.313 0.867 17.456 1.439 5.736 8.588 18.119 37.763 26.843 68.744 4.81 17.079 8.231 33.173 9.641 45.224-14.205 0.723-38.788 1.511-70.621 2.217l-46.552-118.291zM500.539 382.049c-12.379 1.776-21.342 4.57-25.488 8.55-5.694 5.478-11.779 18.149-17.665 35.18-129.286-48.255-123.099-202.378-6.093-297.385 1.535 0.223 3.109 0.33 4.711 0.308 14.753-0.197 33.433-0.353 64.052-0.553 3.396-0.022 42.304-0.269 54.453-0.352 22.167-0.15 40.843-0.294 58.72-0.457 144.962-1.327 205.097-3.145 220.846-9.994 47.547-20.636 0.41-188.010-40.933-217.795-38.17-27.552-588.6 6.037-617.008 41.266-23.708 29.458-6.299 58.345 29.393 87.2 11.359 9.183 25.1 18.532 39.595 27.165-108.577 96.989-142.747 217.002-102.182 330.192 39.514 110.259 144.655 192.137 263.228 205.357-1.866 32.028 0.087 57.847 7.902 67.628 14.515 18.181 105.553 35.362 188.919 43.38-4.008 9.201-7.93 18.191-9.36 21.533-2.157 5.040-4.145 9.76-6.018 14.301-2.872 6.962-5.457 13.459-7.774 19.578-67.92-8.79-140.793 2.1-163.268 37.891-21.758 34.661 0.847 62.439 39.925 77.976 24.785 9.854 59.934 16.779 97.676 19.911 37.010 3.071 73.246 2.196 99.925-2.848 42.33-8.002 70.677-28.34 56.387-66.136-8.881-23.462-36.692-41.691-72.047-53.609 1.279-3.232 2.643-6.598 4.091-10.11 1.768-4.286 3.656-8.769 5.717-13.583 2.351-5.493 12.615-28.932 17.645-40.619 36.713 1.305 65.952-0.218 77.198-5.589 43.245-20.662 51.251-241.878 26.865-276.133-2.174-3.054-6.603-6.093-12.859-9.064-0.562-8.324-2-16.268-4.232-23.802 32.289-31.066 86.401-104.019 86.644-122.755 0.229-27.964-86.213-95.459-112.198-96.939-18.885-1.034-55.389 47.982-81.067 91.77-2.092-28.421-7.331-55.897-15.042-64.242-18.829-20.341-128.552-12.049-148.612 4.25-22.223 18.11-1.746 114.847 14.519 146.121-7.503 9.464-13.172 20.295-16.562 32.409zM570.526 380.205c15.267-12.566 41.593-19.541 72.181-16.661 31.509 2.966 55.276 14.898 67.034 32.766-42.443-8.2-94.613-14.248-139.214-16.105zM740.073 340.954c-10.206-8.975-22.183-16.48-35.514-22.358 6.539-12.303 15.118-27.545 23.675-42.007 8.818-14.904 17.084-28.102 23.733-37.814 6.601 4.53 14.148 10.078 21.566 15.869 7.729 6.035 14.846 11.965 20.451 17.037-0.2 0.293-0.404 0.589-0.61 0.889-6.59 9.561-15.791 21.949-25.793 34.767-9.779 12.53-19.613 24.557-27.35 33.439-0.052 0.060-0.105 0.12-0.157 0.179zM607.855 304.675c-14.41 1.615-28.137 4.878-40.714 9.7-0.428-1.366-0.878-2.835-1.343-4.394-2.979-9.971-6.294-22.478-9.118-34.525-2.216-9.45-4.032-18.184-5.3-25.512 7.952-1.088 17.275-2.060 26.672-2.771 9.979-0.754 19.425-1.166 27.112-1.185 0.857 7.353 1.582 16.33 2.083 25.792 0.589 11.108 0.828 22.087 0.669 30.493-0.016 0.836-0.035 1.638-0.058 2.401zM579.081 833.728c-30.431-2.525-58.508-7.847-77.161-14.592 17.48-4.727 47.74-7.32 81.023-4.122 30.713 2.951 57.816 10.223 74.564 17.636-20.558 3.094-49.077 3.513-78.425 1.079zM542.127 437.464c23.466 0.706 54.48 3.172 86.908 6.853 31.93 3.624 62.896 8.163 86.237 12.668 10.336 1.995 18.909 3.932 25.248 5.692 0.739 5.76 1.376 13.204 1.857 21.874 1.17 21.071 1.337 47.543 0.405 73.289-1.006 27.777-3.209 52.906-6.384 71.391-1.34 7.805-2.815 14.16-4.282 18.709-36.939 3.697-224.080-16.805-249.016-25.329-0.377-5.455-0.227-13.249 0.476-22.834 1.397-19.036 4.876-43.946 9.763-70.476 4.673-25.364 10.336-50.562 15.752-70.144 2.46-8.892 5.113-16.852 6.509-21.525 6.59-0.434 15.605-0.497 26.526-0.169z" />
<glyph unicode="&#xe94b;" glyph-name="lock-hole" d="M320 512h384v64c0 106.039-85.961 192-192 192s-192-85.961-192-192v-64zM832 512c70.692 0 128-57.308 128-128v-384c0-70.692-57.308-128-128-128h-640c-70.692 0-128 57.308-128 128v384c0 70.692 57.308 128 128 128v64c0 176.731 143.269 320 320 320s320-143.269 320-320v-64zM448 238.876c-38.259-22.132-64-63.498-64-110.876 0-70.692 57.308-128 128-128s128 57.308 128 128c0 47.378-25.741 88.744-64 110.876v81.124c0 35.346-28.654 64-64 64s-64-28.654-64-64v-81.124z" />
<glyph unicode="&#xe94c;" glyph-name="myeloma" d="M511.997 544.923c3.639 1.286 7.557 1.986 11.636 1.986 41.91 0 67.467-16.356 88.371-69.87 5.376-13.761 10.444-30.183 15.314-49.663 14.953-59.812 29.186-65.911 66.885-47.061 39.702 19.851 50.521 33.374 50.521 61.867 0 22.077-0.048 22.49-3.321 30.672 1.742-4.353-24.441 55.283-40.728 96-32.803 82.008-49.042 179.442-49.042 292.237 0 19.28 15.63 34.909 34.909 34.909s34.909-15.63 34.909-34.909c0-104.418 14.791-193.162 44.049-266.307 15.713-39.283 41.895-98.919 40.728-96 7.393-18.485 8.315-26.314 8.315-56.601 0-58.78-27.969-93.742-89.116-124.315-76.874-38.437-139.835-11.454-165.842 92.575-4.194 16.776-8.405 30.423-12.613 41.193-10.126 25.924-9.394 25.455-23.339 25.455-4.080 0-7.997 0.7-11.636 1.986-3.639-1.286-7.557-1.986-11.636-1.986-13.944 0-13.211 0.468-23.339-25.455-4.207-10.77-8.419-24.417-12.613-41.193-26.007-104.029-88.968-131.012-165.842-92.575-61.147 30.573-89.116 65.534-89.116 124.315 0 30.287 0.921 38.116 8.315 56.601-1.168-2.919 25.015 56.717 40.728 96 29.258 73.144 44.049 161.889 44.049 266.307 0 19.28 15.63 34.909 34.909 34.909s34.909-15.63 34.909-34.909c0-112.794-16.239-210.23-49.042-292.237-16.287-40.717-42.468-100.353-40.728-96-3.273-8.182-3.321-8.595-3.321-30.672 0-28.493 10.818-42.016 50.521-61.867 37.699-18.85 51.932-12.75 66.885 47.061 4.87 19.48 9.938 35.902 15.314 49.663 20.904 53.514 46.46 69.87 88.371 69.87 4.080 0 7.997-0.7 11.636-1.986zM511.997 335.469c3.639 1.286 7.557 1.986 11.636 1.986 33.876 0 53.309-11.105 66.132-36.752-1.901 3.801 7.092-15.132 9.839-19.841 4.454-7.634 10.206-15.126 18.531-23.451 17.486-17.486 72.631 4.573 142.134 50.907 29.942 19.961 61.177 21.854 82.546-3.789 13.766-16.518 18.274-39.559 18.274-71.803 0-75.85-38.627-168.555-108.636-215.227-36.516-24.344-54.273-59.859-54.273-110.59 0-19.28-15.63-34.909-34.909-34.909s-34.909 15.63-34.909 34.909c0 73.389 28.789 130.966 85.363 168.681 48.145 32.097 77.546 102.658 77.546 157.135 0 4.568-0.144 8.637-0.357 12.146-32.716-21.503-57.421-35.619-87.041-47.467-54.577-21.83-101.624-22.842-135.104 10.636-12.598 12.598-22.016 24.864-29.469 37.641-4.499 7.711-15.17 30.177-11.979 23.796-0.558 1.117 4.62-1.843-3.685-1.843-4.080 0-7.997 0.7-11.636 1.986-3.639-1.286-7.557-1.986-11.636-1.986-8.306 0-3.127 2.959-3.685 1.843 3.191 6.38-7.48-16.084-11.979-23.796-7.453-12.777-16.872-25.043-29.469-37.641-33.48-33.48-80.527-32.468-135.104-10.636-29.622 11.848-54.326 25.964-87.041 47.467-0.213-3.51-0.357-7.579-0.357-12.146 0-54.478 29.4-125.039 77.546-157.135 56.575-37.717 85.363-95.293 85.363-168.681 0-19.28-15.63-34.909-34.909-34.909s-34.909 15.63-34.909 34.909c0 50.732-17.757 86.246-54.273 110.59-70.009 46.672-108.636 139.378-108.636 215.227 0 32.244 4.508 55.285 18.274 71.803 21.369 25.643 52.604 23.75 82.546 3.789 69.502-46.335 124.648-68.393 142.134-50.907 8.325 8.325 14.077 15.817 18.531 23.451 2.746 4.709 11.739 23.641 9.839 19.841 12.824 25.647 32.256 36.752 66.132 36.752 4.080 0 7.997-0.7 11.636-1.986z" />
<glyph unicode="&#xe94d;" glyph-name="patient-case" d="M134.737 626.525v-646.738h754.527v646.738h-754.527zM134.737 734.315h754.527c59.53 0 107.789-48.259 107.789-107.789v-646.738c0-59.53-48.259-107.789-107.789-107.789h-754.527c-59.53 0-107.789 48.259-107.789 107.789v646.738c0 59.53 48.259 107.789 107.789 107.789zM485.514 82.612c5.331-28.43 45.613-29.631 52.629-1.57l58.398 233.593 24.631-73.894c3.668-11.004 13.966-18.426 25.565-18.426h188.632c14.883 0 26.947 12.065 26.947 26.947s-12.065 26.947-26.947 26.947h-169.209l-47.753 143.258c-8.525 25.576-45.169 24.169-51.707-1.986l-50.937-203.747-58.119 309.967c-5.403 28.815-46.432 29.499-52.791 0.88l-49.205-221.425h-140.068c-14.883 0-26.947-12.065-26.947-26.947s12.065-26.947 26.947-26.947h161.684c12.63 0 23.566 8.772 26.306 21.102l25.352 114.082 56.594-301.834zM242.526 895.999h538.947c29.765 0 53.895-24.129 53.895-53.895v0c0-29.765-24.129-53.895-53.895-53.895h-538.947c-29.765 0-53.895 24.129-53.895 53.895v0 0c0 29.765 24.129 53.895 53.895 53.895z" />
<glyph unicode="&#xe94e;" glyph-name="sign-out" d="M576 0h-448v768h448v-160h128v288h-704v-1024h704v288h-128v-160zM1024 384l-211.2 211.2v-115.2h-480v-192h480v-115.2l211.2 211.2z" />
<glyph unicode="&#xe94f;" glyph-name="to-bottom" horiz-adv-x="605" d="M372.364 290.909v605.091h-139.636v-605.091h-232.727l302.545-279.273 302.545 279.273h-232.727zM605.091-34.909v-93.091h-605.091v93.091h605.091z" />
<glyph unicode="&#xe950;" glyph-name="retrospect" d="M669.714 793.6v-141.513l286.399-557.795c38.958-75.875 7.376-168.138-70.54-206.076-21.902-10.664-46.053-16.216-70.54-16.216h-606.102c-87.113 0-157.732 68.769-157.732 153.6 0 23.846 5.701 47.364 16.652 68.692l286.399 557.795v141.513h-53.954c-28.277 0-51.2 22.923-51.2 51.2s22.923 51.2 51.2 51.2h423.372c28.277 0 51.2-22.923 51.2-51.2s-22.923-51.2-51.2-51.2h-53.954zM564.56 793.6h-105.154v-153.6c0-9.778-2.741-18.916-7.497-26.687l-290.004-564.816c-3.65-7.109-5.551-14.949-5.551-22.897 0-28.277 23.54-51.2 52.577-51.2h606.102c8.162 0 16.213 1.851 23.513 5.405 25.972 12.646 36.499 43.4 23.513 68.692l-289.724 564.27c-0.087 0.17-0.173 0.34-0.258 0.51-4.769 7.779-7.519 16.93-7.519 26.723v153.6zM564.56 281.6c-29.038 0-52.577 22.923-52.577 51.2s23.54 51.2 52.577 51.2c29.038 0 52.577-22.923 52.577-51.2s-23.54-51.2-52.577-51.2zM433.117 25.6c-43.556 0-78.866 34.385-78.866 76.8s35.309 76.8 78.866 76.8c43.556 0 78.866-34.385 78.866-76.8s-35.309-76.8-78.866-76.8z" />
<glyph unicode="&#xe951;" glyph-name="lymphoma" d="M996.863 501.591c-6.508 3.941-14.966 1.839-18.891-4.695-10.861-18.080-22.463-34.807-34.81-50.204-33.055 12.64-68.922 5.936-107.625-20.128-39.712-26.683-60.683-55.954-63.368-96.949-23.826-7.199-49.039-12.158-75.684-14.886-6.152 26.021-21.407 46.483-45.817 61.355-21.268 15.495-49.269 22.383-84.001 20.664-10.252 56.486 0.885 110.404 33.589 162.559 130.794 27.96 177.916 93.905 141.397 197.84 15.791 38.297 26.266 79.522 31.319 123.45 0.873 7.58-4.541 14.435-12.091 15.31-7.543 0.874-14.376-4.56-15.248-12.139-4.517-39.267-13.64-76.208-27.262-110.647-114.461-19.204-161.934-86.207-142.412-201.022-35.021-56.912-47.272-116.477-36.641-178.269-9.456-1.495-19.332-3.526-29.617-6.082-23.761 26.359-44.173 55.736-61.169 88.025 67.492 93.335-2.14 166.82-93.987 156.629-20.783 36.369-31.832 75.469-32.957 116.943-0.054 1.987-0.532 3.863-1.331 5.552 12.098 25.856 22.301 52.841 30.552 80.899 2.152 7.318-2.012 15.002-9.3 17.162s-14.942-2.020-17.094-9.337c-19.52-66.375-50.481-126.439-92.298-179.272-93.439-0.196-140.465-55.147-141.065-164.9 44.047-0.336 78.996 7.496 104.872 23.478 13.168-8.725 22.897-19.42 29.086-32.018 11.529-23.469 11.786-54.897 0.826-93.729-49.231-13.132-77.791-39.113-85.672-77.946-45.015 0.431-76.858 12.915-94.873 37.288-4.529 6.128-13.149 7.41-19.251 2.863s-7.38-13.2-2.851-19.328c23.128-31.294 61.648-47.512 114.779-48.42 0.608-21.708 6.13-46.469 16.573-74.291-10.556-59.476 6.95-115.64 52.303-167.798-14.011-94.098 29.861-146.006 131.623-155.69 17.202 39.037 17.202 81.019-5.57 131.223-24.081 45.665-61.269 62.316-111.548 49.965-33.424 41.275-46.945 84.396-40.832 130.224 61.226 9.387 95.267 34.546 102.103 75.527 3.276 22.968 2.649 43.398-1.849 61.3 30.911 22.617 61.952 35.853 92.9 39.499 37.832 4.456 76.825-5.352 116.358-29.187 17.861-104.931 60.203-154.468 127.013-148.616-5.598-34.931-32.572-68.974-76.539-95.628-21.926-12.887-34.375-29.539-37.001-49.492-1.375-10.444-0.002-21.459 4.135-33.127-11.563-78.907 34.991-130.088 139.684-153.545 23.918 43.627 21.133 84.748-8.374 123.362-29.509 33.904-65.617 51.443-108.31 52.631-0.188 2.455-0.146 4.811 0.15 7.057 1.48 11.236 9.227 20.822 23.687 29.306 0.056 0.032 0.111 0.065 0.165 0.098 31.056 18.811 54.711 40.79 70.311 65.326 11.992 18.86 18.905 39.127 20.389 59.383 13.931 3.94 28.737 9.858 44.431 17.791 6.69 22.276 9.964 42.468 9.839 60.584 37.493 3.987 72.568 12.152 105.034 24.434 64.637-7.842 111.776 24.202 141.413 96.109 20.327 21.992 38.853 46.864 55.483 74.545 3.924 6.532 1.829 15.023-4.679 18.964zM370.467 409.037c-33.739-3.972-67.437-17.592-100.208-40.439-4.705 8.27-10.568 15.784-17.575 22.551 12.401 45.074 11.43 82.626-2.991 111.981-7.231 14.721-17.768 27.362-31.515 37.861 22.545 23.969 33.551 58.301 32.999 103.017 17.179 21.378 32.638 43.902 46.367 67.503 5.676-35.133 18.106-68.475 37.193-99.828-9.62-82.256 20.335-132.118 89.825-149.587 11.895-22.584 25.323-43.817 40.255-63.528 1.040-1.373 2.11-2.722 3.167-4.083-32.71 13.455-65.308 18.345-97.517 14.553z" />
</font>
</defs>
</svg>
